<?xml version="1.0" encoding="utf-8"?>
<!-- Generator: Adobe Illustrator 21.0.0, SVG Export Plug-In . SVG Version: 6.00 Build 0)  -->
<!DOCTYPE svg PUBLIC "-//W3C//DTD SVG 1.1//EN" "http://www.w3.org/Graphics/SVG/1.1/DTD/svg11.dtd">
<svg version="1.1" id="Layer_1" xmlns="http://www.w3.org/2000/svg" xmlns:xlink="http://www.w3.org/1999/xlink" x="0px" y="0px"
	 viewBox="0 0 60 54.8" enable-background="new 0 0 60 54.8" xml:space="preserve">
<g>
	<path fill-rule="evenodd" clip-rule="evenodd" fill="none" stroke="#BDC3C5" stroke-width="0.7087" stroke-miterlimit="10" d="
		M12.9,48.5c-2.8,0-4.7-0.4-6-3.2c-0.3-0.7-0.5-1.6-0.5-2.6V19.5h47.4v23.3c0,2.4-1.1,3.9-2.6,4.9c-1.6,1-4.6,0.8-7,0.8L12.9,48.5z
		 M11.5,4.2v2.1C5.8,6.3,1,11.1,1,16.8v26.5c0,4.1,2.2,7.1,5.4,9.1c1.5,0.9,3.5,1.4,5.8,1.4c11.7,0,23.4,0,35.1,0c3.9,0,6.8-1,9.2-4
		c1.2-1.5,2.4-3.8,2.4-6.5V16.8c0-5.7-4.8-10.5-10.5-10.5c0-2.1,0.4-5.3-3-5.3h-4.8c-1.5,0-2.8,1-2.8,2.5v2.8H22.1
		C22.1,4,22.7,1,19,1C15.1,1,11.5,0.3,11.5,4.2"/>
	<linearGradient id="SVGID_1_" gradientUnits="userSpaceOnUse" x1="35.9754" y1="41.0055" x2="27.5527" y2="25.1798">
		<stop  offset="8.922790e-02" style="stop-color:#38BEB5"/>
		<stop  offset="1" style="stop-color:#2275BB"/>
	</linearGradient>
	<path fill-rule="evenodd" clip-rule="evenodd" fill="url(#SVGID_1_)" d="M21,35.8l5-3.4l2.4,5c0,0,5.6-12.4,10.4-13.8
		c0,0-1.1,6.2,0.1,7.4c0,0-6.1,3.8-10.2,11.9C28.8,42.8,24.8,36.7,21,35.8"/>
</g>
</svg>
