<?xml version="1.0" encoding="UTF-8"?>
<svg width="60px" height="58px" viewBox="0 0 60 58" version="1.1" xmlns="http://www.w3.org/2000/svg" xmlns:xlink="http://www.w3.org/1999/xlink">
    <!-- Generator: Sketch 41 (35326) - http://www.bohemiancoding.com/sketch -->
    <title>Layer_2</title>
    <desc>Created with Sketch.</desc>
    <defs></defs>
    <g id="Page-1" stroke="none" stroke-width="1" fill="none" fill-rule="evenodd">
        <g id="linkedin-hover" transform="translate(-20.000000, -21.000000)" fill="#FFFFFF">
            <g id="Layer_1">
                <g id="Layer_2" transform="translate(20.000000, 21.000000)">
                    <path d="M59.511,35.375 L59.511,57.199 L46.857,57.199 L46.857,36.84 C46.857,31.727 45.031,28.236 40.45,28.236 C36.954,28.236 34.877,30.587 33.96,32.861 C33.627,33.674 33.541,34.804 33.541,35.945 L33.541,57.2 L20.887,57.2 C20.887,57.2 21.057,22.716 20.887,19.145 L33.541,19.145 L33.541,24.538 C33.516,24.581 33.479,24.622 33.457,24.663 L33.541,24.663 L33.541,24.538 C35.223,21.95 38.223,18.252 44.943,18.252 C53.27,18.251 59.511,23.689 59.511,35.375 L59.511,35.375 Z M7.649,0.801 C3.32,0.801 0.489,3.641 0.489,7.374 C0.489,11.028 3.239,13.951 7.483,13.951 L7.565,13.951 C11.978,13.951 14.722,11.028 14.722,7.374 C14.639,3.641 11.979,0.801 7.649,0.801 L7.649,0.801 Z M1.241,57.199 L13.89,57.199 L13.89,19.145 L1.241,19.145 L1.241,57.199 Z" id="Shape"></path>
                </g>
            </g>
        </g>
    </g>
</svg>