<?xml version="1.0" encoding="utf-8"?>
<!-- Generator: Adobe Illustrator 21.0.0, SVG Export Plug-In . SVG Version: 6.00 Build 0)  -->
<!DOCTYPE svg PUBLIC "-//W3C//DTD SVG 1.1//EN" "http://www.w3.org/Graphics/SVG/1.1/DTD/svg11.dtd">
<svg version="1.1" id="Layer_1" xmlns="http://www.w3.org/2000/svg" xmlns:xlink="http://www.w3.org/1999/xlink" x="0px" y="0px"
	 viewBox="0 0 57.8 54.8" enable-background="new 0 0 57.8 54.8" xml:space="preserve">
<g>
	<linearGradient id="SVGID_1_" gradientUnits="userSpaceOnUse" x1="45.1892" y1="49.5227" x2="27.3436" y2="14.6876">
		<stop  offset="8.922790e-02" style="stop-color:#38BEB5"/>
		<stop  offset="1" style="stop-color:#2275BB"/>
	</linearGradient>
	<path fill-rule="evenodd" clip-rule="evenodd" fill="url(#SVGID_1_)" d="M17.9,32.6c0,10.6,9.4,16.7,18.4,16.7
		c2.1,0,3.2-0.2,5.2-0.5c3.3-0.5,7.5,3.2,14,3.7c-0.2-1.9-1-2.7-1.6-4.5c-2.3-6.5-1.2-4.8,0.9-9.3c0.6-1.2,0.9-2.5,1.1-3.9v-2.9
		c-0.8-7.4-7.7-14.5-20.2-14.5C27.2,17.4,17.9,24.4,17.9,32.6"/>
	<path fill-rule="evenodd" clip-rule="evenodd" fill="#BDC3C5" d="M1.9,20.2c0,2.4,0.4,4.5,1.1,6.3c2.1,5.4,4.7,3,0.4,13.6
		c-0.5,1.1-0.9,1.7-1.1,2.8c2.2-0.1,5.7-1.2,7.5-1.7c2.8-0.8,4.4-1.4,6.7-2.6c0-1.6-0.6-2.7-0.7-4.3c-2.4,0.5-3.9,1.9-6.4,2.5
		c0.4-5,2.9-4.9,0.2-8.3C-2.4,14.1,23.3-2,37.8,12.3c3.6,3.6,0.2,3,7.7,4.7c-0.1-2.3-2-5-3.1-6.5c-5-6.8-15.9-9.7-24.1-7.6
		c-4.5,1.1-5.9,1.9-9.8,4.7C5.6,9.9,1.9,15.3,1.9,20.2"/>
</g>
</svg>
