<?xml version="1.0" encoding="UTF-8"?>
<svg width="68px" height="56px" viewBox="0 0 68 56" version="1.1" xmlns="http://www.w3.org/2000/svg" xmlns:xlink="http://www.w3.org/1999/xlink">
    <!-- Generator: Sketch 41 (35326) - http://www.bohemiancoding.com/sketch -->
    <title>Layer_1_1_</title>
    <desc>Created with Sketch.</desc>
    <defs></defs>
    <g id="Page-1" stroke="none" stroke-width="1" fill="none" fill-rule="evenodd">
        <g id="twitter" transform="translate(-16.000000, -22.000000)" fill="#5DB6F5">
            <g id="Layer_1">
                <g id="Layer_1_1_" transform="translate(16.000000, 22.000000)">
                    <path d="M67.843,7.008 C65.354,8.112 62.675,8.86 59.866,9.194 C62.732,7.475 64.933,4.756 65.972,1.512 C63.288,3.104 60.316,4.259 57.155,4.881 C54.622,2.183 51.011,0.496 47.015,0.496 C39.347,0.496 33.128,6.715 33.128,14.383 C33.128,15.472 33.251,16.531 33.489,17.548 C21.949,16.969 11.717,11.44 4.867,3.037 C3.672,5.088 2.986,7.475 2.986,10.019 C2.986,14.835 5.439,19.087 9.164,21.578 C6.889,21.506 4.746,20.882 2.875,19.84 C2.873,19.899 2.873,19.958 2.873,20.016 C2.873,26.745 7.662,32.355 14.014,33.631 C12.85,33.949 11.621,34.119 10.356,34.119 C9.46,34.119 8.59,34.031 7.743,33.871 C9.511,39.387 14.638,43.4 20.716,43.514 C15.962,47.24 9.976,49.459 3.468,49.459 C2.349,49.459 1.241,49.393 0.157,49.264 C6.3,53.205 13.6,55.504 21.442,55.504 C46.985,55.504 60.954,34.346 60.954,15.992 C60.954,15.39 60.94,14.791 60.913,14.196 C63.628,12.238 65.98,9.793 67.843,7.008 L67.843,7.008 Z" id="Shape"></path>
                </g>
            </g>
        </g>
    </g>
</svg>