<?xml version="1.0" encoding="utf-8"?>
<!-- Generator: Adobe Illustrator 21.0.0, SVG Export Plug-In . SVG Version: 6.00 Build 0)  -->
<!DOCTYPE svg PUBLIC "-//W3C//DTD SVG 1.1//EN" "http://www.w3.org/Graphics/SVG/1.1/DTD/svg11.dtd">
<svg version="1.1" id="Layer_1" xmlns="http://www.w3.org/2000/svg" xmlns:xlink="http://www.w3.org/1999/xlink" x="0px" y="0px"
	 viewBox="0 0 57.8 54.8" enable-background="new 0 0 57.8 54.8" xml:space="preserve">
<g>
	<path fill-rule="evenodd" clip-rule="evenodd" fill="none" stroke="#BDC3C5" stroke-width="0.7087" stroke-miterlimit="10" d="
		M41.7,46.8L41.7,46.8 M12.9,10.1c0,1.6,0.2,2.2,0.3,3.1c0.3,3.2-0.3,0.2-0.7,2.9c-0.3,2.6,1.5,3.5,2.3,4.7c0.7,1,0.6,2.4,1.9,5.1
		c2,4,3.4,4.8-4,6.7c-1.9,0.5-3.7,1-5.4,1.6c-5.7,1.9-6.6,5.2-6.7,8.7v3.2c0,2.2,7.8,4.7,10.2,5.4c5.8,1.7,10.1,1.9,13.9,1.7
		c3.8,0.2,8,0,13.9-1.7c0.9-0.2,2.4-0.7,4-1.3c-0.7-0.2-1.4-0.4-2-0.6l0,0c-1.5-0.6-2.9-1.6-4-2.7c-1.2-1.2-2.1-2.5-2.7-4.1
		c-0.6-1.5-1-3.1-1-4.8c0-1.7,0.3-3.3,1-4.8l0,0h0c0.2-0.4,0.4-0.8,0.6-1.2c-4.7-1.5-3.5-2.5-1.7-6c1.4-2.7,1.2-4.1,1.9-5.1
		c0.8-1.3,2.6-2.1,2.3-4.7c-0.3-2.6-1,0.4-0.7-2.9c0.1-0.9,0.3-1.5,0.3-3.1c0-0.6-0.7-3.2-1-3.8c-2.7-7.1-18.9-7.1-21.6,0
		C13.7,7,12.9,9.5,12.9,10.1"/>
	<g>
		<linearGradient id="SVGID_1_" gradientUnits="userSpaceOnUse" x1="52.2229" y1="50.1466" x2="28.196" y2="5.2437">
			<stop  offset="8.922790e-02" style="stop-color:#38BEB5"/>
			<stop  offset="1" style="stop-color:#2275BB"/>
		</linearGradient>
		<path fill-rule="evenodd" clip-rule="evenodd" fill="url(#SVGID_1_)" d="M53.7,29.9c-2.1-2.2-4.9-3.4-8.1-3.4
			c-3,0-5.8,1.1-7.9,3.2c-2.2,2.1-3.4,4.9-3.4,8c0,3,1.1,5.9,3.2,8c2.1,2.2,4.9,3.4,8,3.4h0.1c0,0,0,0,0,0c3,0,5.8-1.1,7.9-3.2
			c2.2-2.1,3.4-4.9,3.4-8C57,35,55.8,32.1,53.7,29.9z M52.4,44.8c-1.8,1.8-4.2,2.8-6.8,2.8l0,0.8l-0.1-0.8c-2.6,0-5-1.1-6.8-2.9
			c-1.8-1.8-2.8-4.3-2.8-6.9c0-2.6,1.1-5,2.9-6.8c1.8-1.8,4.2-2.8,6.9-2.8c0,0,0,0,0,0c2.6,0,5,1.1,6.8,2.9c1.8,1.8,2.8,4.3,2.8,6.9
			C55.3,40.5,54.3,43,52.4,44.8z"/>
		<linearGradient id="SVGID_2_" gradientUnits="userSpaceOnUse" x1="52.8227" y1="49.8278" x2="28.7914" y2="4.9167">
			<stop  offset="8.922790e-02" style="stop-color:#38BEB5"/>
			<stop  offset="1" style="stop-color:#2275BB"/>
		</linearGradient>
		<path fill-rule="evenodd" clip-rule="evenodd" fill="url(#SVGID_2_)" d="M51.8,31.3c-3.5,1-7.6,10-7.6,10l-1.7-3.7l-3.7,2.4
			c2.8,0.7,5.6,5.2,5.6,5.2c3-5.9,7.5-8.6,7.5-8.6C51,35.8,51.8,31.3,51.8,31.3z"/>
	</g>
</g>
</svg>
