<?xml version="1.0" encoding="utf-8"?>
<!-- Generator: Adobe Illustrator 21.0.0, SVG Export Plug-In . SVG Version: 6.00 Build 0)  -->
<!DOCTYPE svg PUBLIC "-//W3C//DTD SVG 1.1//EN" "http://www.w3.org/Graphics/SVG/1.1/DTD/svg11.dtd">
<svg version="1.1" id="Layer_1" xmlns="http://www.w3.org/2000/svg" xmlns:xlink="http://www.w3.org/1999/xlink" x="0px" y="0px"
	 viewBox="0 0 76.6 67.8" enable-background="new 0 0 76.6 67.8" xml:space="preserve">
<path fill-rule="evenodd" clip-rule="evenodd" fill="none" stroke="#BDC3C5" stroke-width="0.7087" stroke-miterlimit="10" d="
	M9.1,28.6c0,1.1,0.1,1.5,0.2,2.1c0.2,2.2-0.2,0.2-0.5,2c-0.2,1.8,1,2.4,1.6,3.2c0.5,0.7,0.4,1.7,1.3,3.5C13.1,42,14,42.5,9,43.8
	c-1.3,0.3-2.5,0.7-3.7,1.1c-3.9,1.3-4.5,3.5-4.5,5.9V53c0,1.5,5.3,3.2,6.9,3.7c7.7,2.2,11.4,0.6,16.2,0.6v-0.5
	c-2.6-0.6-4-2.3-3.8-4.8c0.4-6.4,0.7-4.3,2.3-6.8c-1.8-2.6-1.8-2.2-3.3-5.5c-0.5-1-0.7-2.3-1-3.5c-0.9-3.4-0.3-7.7,0.8-10.9
	c0.2-0.4,0.2-0.5,0.3-0.9c0.3-0.7,0.2-0.3,0.5-1.1c-3.2-1.5-8.5-0.9-9.9,2.7C9.6,26.4,9.1,28.1,9.1,28.6"/>
<path fill-rule="evenodd" clip-rule="evenodd" fill="none" stroke="#BDC3C5" stroke-width="0.7087" stroke-miterlimit="10" d="
	M58.7,30.8c0,2.6-0.1,4.2-0.7,6.5c-0.4,1.4-1.1,3.2-1.8,4.5c1.7,0.8,2.2,0,4.4,2.2l4,4.1c1.3,1.3,6.5,6.7,7.5,7.4
	c4.3-1,3.8-3,3.8-5.3c0-3-2.5-4.7-4.9-5.5c-2.6-0.9-7-1.3-7.2-3.1c0-0.4,1.5-2.4,1.9-4.4c0.4-2-0.2-0.8,0.9-2.1
	c1.7-2,0.6-3.4,0.5-4.1c-0.2-1.7,0.5-3.5-1.2-5.8c-0.8-1-5-2.7-6.9-2.7c-3.7,0-2.2-0.1-1.1,3.8l0.1,0.4
	C58.2,27.6,58.7,29.9,58.7,30.8"/>
<path fill-rule="evenodd" clip-rule="evenodd" fill="none" stroke="#BDC3C5" stroke-width="0.7087" stroke-miterlimit="10" d="
	M40.6,11.4c1.4,0.7,3.5,0.5,7.5,2.6c4.1,2.2,4.3,4,5.9,4.5c0.2-0.9,0.7-1.8,0.9-2.6c0.3-1.2,0-1.4,0.8-2.2c1.8-2.1,0.8-3,0.8-6
	c-0.1-4.3-2.1-4.9-4.6-6c-3-1.3-7.2-1.4-9.5,1.2c-0.5,0.6-0.5,0.6-0.8,1.3c-0.9,2.3-0.3,4.2-0.6,5.5C40.8,10.7,40.6,10.2,40.6,11.4"
	/>
<path fill-rule="evenodd" clip-rule="evenodd" fill="none" stroke="#BDC3C5" stroke-width="0.7087" stroke-miterlimit="10" d="
	M19.9,6.9c0,1.5,0.3,1.8,0.3,3.3c-1.8,0.4,0,3,0.7,3.8c0.9,1.1,0.4,1.1,1.3,3.2c0.2,0.4,0.3,0.7,0.5,1c1.2-0.3,2.1-2,3.9-3.1
	c0.7-0.5,0.8-0.6,1.5-1c1.6-0.9,5.6-2.4,7.4-2.4c0.2-2.8-0.2-0.3-0.2-4c0-2.7-0.9-4.7-3.5-5.5c-3.8-1.2-0.8-1.3-6.6-1.3
	C22.8,0.9,19.9,3.4,19.9,6.9"/>
<g>
	<linearGradient id="SVGID_1_" gradientUnits="userSpaceOnUse" x1="60.0433" y1="67.9828" x2="6.8611" y2="-12.775">
		<stop  offset="8.922790e-02" style="stop-color:#38BEB5"/>
		<stop  offset="1" style="stop-color:#2275BB"/>
	</linearGradient>
	<path fill-rule="evenodd" clip-rule="evenodd" fill="url(#SVGID_1_)" d="M33,39.2c0.6,1.4,3.1,3.4-1.7,4.5c0.9,1.3,4.8,2.1,6.9,2.2
		c3.3,0.2,6.1-1.7,7.2-1.9c-0.7-1-1.7-0.7-2.8-2.3c0.3-1.1,0.6-0.7,1.3-2.4c0.4-1,0.5-2.1,0.9-3.1c0.4-1.2,1.1-0.8,1.4-2.6
		c0.2-1.2,0.1-7.5-2.5-9.1c-1.3-0.8-4.7-1.9-6.2-1.9c-2.2,0-3.8,0.4-5.1,1.7c-1.2,1.1-1.9,3.1-1.9,4.4c0,1.1,0.3,2,0.2,2.5
		c-0.1,1.5,0,0.1-0.3,0.9c-0.4,1.2-0.1,2.1,0.8,3.2C32.8,36.9,31.7,36.4,33,39.2z"/>
	<linearGradient id="SVGID_2_" gradientUnits="userSpaceOnUse" x1="61.3303" y1="67.1314" x2="8.1511" y2="-13.6219">
		<stop  offset="8.922790e-02" style="stop-color:#38BEB5"/>
		<stop  offset="1" style="stop-color:#2275BB"/>
	</linearGradient>
	<path fill-rule="evenodd" clip-rule="evenodd" fill="url(#SVGID_2_)" d="M29.7,48.5c4.2,2.2,9.1,2.6,13.6,1.3c2-0.6,4.5-1.8,6.1-3
		l2.3-2.2c2.2-2.6,4-5.3,4.6-9c0.4-2.3,0.3-6.2-0.3-8.1c-1-3.5-2.5-6.1-5-8.6c-1.5-1.5-3.4-2.8-5.4-3.7C36.5,11,25.9,15,21.5,24.3
		c-0.4,0.9-0.9,2.2-1.2,3.4c-0.2,1.2-0.6,3-0.6,4.2c0,3,1,6.5,2.2,8.9C23.7,43.9,26.4,46.7,29.7,48.5z M26.9,20.9
		c1.1-1.1,3.2-2.5,4.6-3.2c1.4-0.7,4.4-1.5,6.6-1.5c3.6,0,7,1.3,9.1,2.8c5.2,3.8,7.8,9.9,6.5,16.3c-2.9,13.8-21,16.8-28.3,5.8
		c-0.8-1.3-1.5-2.5-2-4C21.3,31.8,22.9,25.1,26.9,20.9z"/>
	<linearGradient id="SVGID_3_" gradientUnits="userSpaceOnUse" x1="67.3641" y1="63.1578" x2="14.1862" y2="-17.5933">
		<stop  offset="8.922790e-02" style="stop-color:#38BEB5"/>
		<stop  offset="1" style="stop-color:#2275BB"/>
	</linearGradient>
	<path fill-rule="evenodd" clip-rule="evenodd" fill="url(#SVGID_3_)" d="M69.8,56.2c-1.4-1.4-10.8-11-11.6-11.5
		c-1-0.5-1.4-0.4-2.1-0.5c-0.4-0.1-0.1,0-0.4-0.1c-0.9-0.4-0.1-1.4-3.2,1.6c-0.9,0.9-1.4,1.3-2.1,2.5c1.5,2.8,0.3,1.6,1.1,3.2
		c0.5,0.9,1.4,1.7,2.1,2.4c1.7,1.7,12.4,13,13.7,13c2.9,0,2.3,0.3,4.8-2.2C75.9,60.9,72.8,59.1,69.8,56.2z"/>
	<linearGradient id="SVGID_4_" gradientUnits="userSpaceOnUse" x1="50.5179" y1="74.2536" x2="-2.6642" y2="-6.5039">
		<stop  offset="8.922790e-02" style="stop-color:#38BEB5"/>
		<stop  offset="1" style="stop-color:#2275BB"/>
	</linearGradient>
	<path fill-rule="evenodd" clip-rule="evenodd" fill="url(#SVGID_4_)" d="M48.9,49.7c-3.3,0.8-3.2,2.8-11.6,2.8
		c-4.8,0-8.7-2-12.2-4.7c-0.6-0.5-0.8-0.7-1.4-1.1C23,47.8,22.2,48,22.2,50c0,3-0.4,3.6,1,4.3c7.9,4.2,20.5,4.9,28.7,1
		C51.4,53.2,50,54.6,48.9,49.7z"/>
</g>
</svg>
