<?xml version="1.0" encoding="UTF-8"?>
<!DOCTYPE svg PUBLIC "-//W3C//DTD SVG 1.1//EN" "http://www.w3.org/Graphics/SVG/1.1/DTD/svg11.dtd">
<!-- Creator: CorelDRAW X5 -->
<svg xmlns="http://www.w3.org/2000/svg" xml:space="preserve" width="5.14077in" height="0.750441in" style="shape-rendering:geometricPrecision; text-rendering:geometricPrecision; image-rendering:optimizeQuality; fill-rule:evenodd; clip-rule:evenodd"
viewBox="0 0 5.14077 0.750441"
 xmlns:xlink="http://www.w3.org/1999/xlink">
 <defs>
  <style type="text/css">
   <![CDATA[
    .fil1 {fill:#FEFEFE;fill-rule:nonzero}
    .fil5 {fill:#2074B9;fill-rule:nonzero}
    .fil2 {fill:black;fill-rule:nonzero}
    .fil0 {fill:#EDEDED;fill-rule:nonzero}
    .fil3 {fill:#EFF3F3;fill-rule:nonzero}
    .fil4 {fill:#FEFEFE;fill-rule:nonzero;fill-opacity:0.419608}
   ]]>
  </style>
  <clipPath id="id0" style="clip-rule:nonzero">
   <rect x="3.11706" y="-5.36089" width="5.43056" height="4.58333"/>
  </clipPath>
 </defs>
<symbol id="Symbol231" viewBox="10.8167 -4.149 0.0114606 0.00894488">
 <polygon class="fil0" points="10.8255,-4.149 10.8167,-4.14006 10.8281,-4.14311 "/>
</symbol>
<symbol id="Symbol204" viewBox="9.91801 -3.64386 0.595531 0.464693">
 <polygon class="fil0" points="10.5135,-3.17917 10.3285,-3.64386 9.91801,-3.22654 "/>
</symbol>
<symbol id="Symbol169" viewBox="11.9978 -6.51624 0.0522047 0.227583">
 <polygon class="fil0" points="11.9978,-6.28865 12.05,-6.51118 12.0034,-6.51624 "/>
</symbol>
<symbol id="Symbol164" viewBox="12.7503 -5.5287 0.917319 2.66817">
 <path class="fil0" d="M13.6676 -5.5287c-0.237583,0.322323 -0.559346,0.760626 -0.917319,1.2491l0.917319 1.41907 0 -2.66817z"/>
</symbol>
<symbol id="Symbol154" viewBox="9.13278 -6.6474 0.585469 1.91361">
 <polygon class="fil0" points="9.71825,-5.17679 9.13278,-6.6474 9.28506,-4.73379 "/>
</symbol>
<symbol id="Symbol151" viewBox="9.36303 -3.97533 0.965516 0.748791">
 <polygon class="fil0" points="9.91802,-3.22654 10.3285,-3.64387 10.1966,-3.97533 9.36303,-3.75391 9.40172,-3.26761 "/>
</symbol>
<symbol id="Symbol148" viewBox="10.1966 -4.07215 0.368807 0.428291">
 <polygon class="fil0" points="10.3285,-3.64386 10.5654,-3.88463 10.561,-4.07215 10.1966,-3.97533 "/>
</symbol>
<symbol id="Symbol110" viewBox="5.28895 -1.699 1.35702 1.216">
 <polygon class="fil0" points="6.64597,-0.521941 5.79529,-1.699 5.28895,-0.482996 "/>
</symbol>
<symbol id="Symbol66" viewBox="6.79309 -3.32825 1.77744 2.82506">
 <polygon class="fil0" points="8.57054,-0.503197 7.5801,-3.32825 6.79309,-1.50737 7.4052,-1.04841 7.58135,-1.6358 "/>
</symbol>
<symbol id="Symbol96" viewBox="11.3047 -3.56051 0.621862 0.953043">
 <path class="fil0" d="M11.9266 -3.15462l-0.621862 -0.40589 0.180126 0.861724 0.0415276 0.0913189c0.132165,-0.180764 0.266236,-0.364055 0.400209,-0.547154z"/>
</symbol>
<symbol id="Symbol60" viewBox="9.40172 -3.26761 0.516291 0.523539">
 <polygon class="fil0" points="9.40172,-3.26761 9.44339,-2.74407 9.91802,-3.22655 "/>
</symbol>
<symbol id="Symbol56" viewBox="11.4848 -2.69878 0.0415118 0.115154">
 <path class="fil0" d="M11.5264 -2.60747l-0.0415118 -0.0913071 0.0240669 0.115154c0.00580709,-0.00794488 0.011626,-0.0159016 0.0174449,-0.0238465z"/>
</symbol>
<symbol id="Symbol55" viewBox="11.7451 -1.60701 1.11843 1.94057">
 <polygon class="fil0" points="11.7451,-1.45358 12.1187,0.333555 12.8636,0.333555 11.9812,-1.60701 "/>
</symbol>
<symbol id="Symbol42" viewBox="6.99075 0.0660945 0.273516 0.267461">
 <polygon class="fil0" points="6.99075,0.333555 7.26426,0.333555 7.07096,0.0660945 "/>
</symbol>
<symbol id="Symbol7" viewBox="8.66341 -0.238299 0.0633898 0.180823">
 <polygon class="fil0" points="8.7268,-0.0574764 8.66341,-0.238299 8.66359,-0.104866 "/>
</symbol>
<symbol id="Fm25-32-0" viewBox="9.13278 -6.6474 0.585469 1.91361">
 <polygon class="fil0" points="9.71825,-5.17679 9.13278,-6.6474 9.28506,-4.73379 "/>
</symbol>
<symbol id="Symbol235" viewBox="11.4848 -2.69878 0.0415118 0.115154">
 <path class="fil0" d="M11.5264 -2.60747l-0.0415118 -0.0913071 0.0240669 0.115154c0.00580709,-0.00794488 0.011626,-0.0159016 0.0174449,-0.0238465z"/>
</symbol>
<symbol id="Symbol224" viewBox="12.9072 -8.55618 0.175236 0.72715">
 <path class="fil0" d="M13.0825 -8.55618c-0.0571654,0.0148307 -0.11572,0.0300669 -0.175236,0.0456102 0.0884449,0.399764 0.151154,0.681539 0.151154,0.681539l0.0240827 -0.72715z"/>
</symbol>
<symbol id="Symbol192" viewBox="11.9658 -5.47503 0.111303 0.472862">
 <polygon class="fil0" points="11.9658,-5.00217 12.0771,-5.32104 11.9776,-5.47503 "/>
</symbol>
<symbol id="Symbol185" viewBox="11.3047 -3.56051 0.621862 0.953043">
 <path class="fil0" d="M11.9266 -3.15462l-0.621862 -0.40589 0.180126 0.861724 0.0415276 0.0913189c0.132165,-0.180764 0.266236,-0.364055 0.400209,-0.547154z"/>
</symbol>
<symbol id="Symbol182" viewBox="11.9266 -4.2796 1.74103 1.91831">
 <path class="fil0" d="M13.6676 -2.7028l0 -0.157736 -0.917319 -1.41907c-0.261539,0.356874 -0.542346,0.740417 -0.823709,1.12499l1.21549 0.793319 0.525539 -0.3415z"/>
</symbol>
<symbol id="Symbol149" viewBox="7.96322 -3.7539 1.4385 0.486291">
 <polygon class="fil0" points="9.36303,-3.7539 7.96322,-3.38204 9.40172,-3.26761 "/>
</symbol>
<symbol id="Symbol89" viewBox="11.5089 -2.60748 0.472331 1.15389">
 <path class="fil0" d="M11.5089 -2.58363l0.23622 1.13004 0.23611 -0.153429 -0.454886 -1.00046c-0.0058189,0.00794488 -0.0116417,0.0159055 -0.0174449,0.0238465z"/>
</symbol>
<symbol id="Symbol116" viewBox="12.4212 -10.7359 0.7335 2.2253">
 <path class="fil0" d="M13.1547 -10.7359l-0.7335 0c0.119587,0.564413 0.338598,1.55885 0.486071,2.2253 0.0595157,-0.0155276 0.118055,-0.0307756 0.175236,-0.0455984l0.0721929 -2.1797z"/>
</symbol>
<symbol id="Symbol78" viewBox="11.0866 -8.40206 1.40689 0.60128">
 <path class="fil0" d="M12.3525 -7.80078l0.141028 -0.60128c-0.70828,0.186638 -1.40689,0.374374 -1.40689,0.374374l1.26586 0.226906z"/>
</symbol>
<symbol id="Symbol71" viewBox="9.91801 -3.64386 0.595531 0.464693">
 <polygon class="fil0" points="10.5135,-3.17917 10.3285,-3.64386 9.91801,-3.22654 "/>
</symbol>
<symbol id="Symbol104" viewBox="2.62985 -1.50865 1.45087 1.8422">
 <path class="fil0" d="M2.62985 0.333555l1.45087 0c-0.13415,-0.458472 -0.527193,-1.79143 -0.576677,-1.84092 -0.0498071,-0.0497913 -0.6685,1.36574 -0.874197,1.84092z"/>
</symbol>
<symbol id="Fm2-26-0" viewBox="4.63665 -5.13946 2.26622 1.85608">
 <polygon class="fil0" points="6.18782,-3.37338 6.90287,-5.13946 4.63665,-3.30216 4.65022,-3.28338 "/>
</symbol>
<symbol id="Fm13-20-0" viewBox="11.9812 -2.3613 1.68636 2.69485">
 <polygon class="fil0" points="13.1421,-2.3613 11.9812,-1.60701 12.8636,0.333551 13.6676,0.333551 13.6676,-2.0183 "/>
</symbol>
<symbol id="Fm10-18-0" viewBox="11.9266 -4.2796 1.74103 1.91831">
 <path class="fil0" d="M13.6676 -2.7028l0 -0.157736 -0.917319 -1.41907c-0.261539,0.356874 -0.542346,0.740417 -0.823709,1.12499l1.21549 0.793319 0.525539 -0.3415z"/>
</symbol>
<symbol id="Symbol15" viewBox="11.0866 -8.40206 1.40689 0.60128">
 <path class="fil0" d="M12.3525 -7.80078l0.141028 -0.60128c-0.70828,0.186638 -1.40689,0.374374 -1.40689,0.374374l1.26586 0.226906z"/>
</symbol>
<symbol id="Symbol9" viewBox="9.28506 -5.17679 0.911528 1.42289">
 <polygon class="fil0" points="9.36303,-3.7539 10.1966,-3.97533 9.71825,-5.17679 9.28506,-4.73379 "/>
</symbol>
<symbol id="Fm92-77-0" viewBox="9.36303 -3.97533 0.965516 0.748791">
 <polygon class="fil0" points="9.91802,-3.22654 10.3285,-3.64387 10.1966,-3.97533 9.36303,-3.75391 9.40172,-3.26761 "/>
</symbol>
<symbol id="Fm47-47-0" viewBox="4.49998 -1.31319 0.140276 0.171264">
 <path class="fil0" d="M4.50717 -1.31319l-0.00719291 0.110543 0.140276 0.0607205c0,0 -0.0491929,-0.063374 -0.133083,-0.171264z"/>
</symbol>
<symbol id="Symbol236" viewBox="11.5089 -2.60748 0.472331 1.15389">
 <path class="fil0" d="M11.5089 -2.58363l0.23622 1.13004 0.23611 -0.153429 -0.454886 -1.00046c-0.0058189,0.00794488 -0.0116417,0.0159055 -0.0174449,0.0238465z"/>
</symbol>
<symbol id="Symbol219" viewBox="12.0034 -7.2748 0.22 0.76361">
 <polygon class="fil0" points="12.0034,-6.51624 12.05,-6.51119 12.2234,-7.25069 12.0223,-7.2748 "/>
</symbol>
<symbol id="Symbol177" viewBox="10.1966 -4.07215 0.368807 0.428291">
 <polygon class="fil0" points="10.3285,-3.64386 10.5654,-3.88463 10.561,-4.07215 10.1966,-3.97533 "/>
</symbol>
<symbol id="Symbol162" viewBox="6.99075 0.0660945 0.273516 0.267461">
 <polygon class="fil0" points="6.99075,0.333555 7.26426,0.333555 7.07096,0.0660945 "/>
</symbol>
<symbol id="Symbol161" viewBox="4.63537 -3.30216 0.0148504 0.0196378">
 <polygon class="fil0" points="4.63665,-3.30216 4.63537,-3.28252 4.65022,-3.28338 "/>
</symbol>
<symbol id="Symbol152" viewBox="9.7233 -0.603862 0.490362 0.464039">
 <path class="fil0" d="M9.7233 -0.139823l0.490362 -0.318622 -0.151516 -0.145417c-0.211331,0.289362 -0.338846,0.464039 -0.338846,0.464039z"/>
</symbol>
<symbol id="Symbol90" viewBox="10.1966 -4.07215 0.368807 0.428291">
 <polygon class="fil0" points="10.3285,-3.64386 10.5654,-3.88463 10.561,-4.07215 10.1966,-3.97533 "/>
</symbol>
<symbol id="Symbol86" viewBox="10.5947 -2.58363 1.15046 1.87758">
 <path class="fil0" d="M10.6545 -1.41475l-0.0598189 0.708709 1.15046 -0.747539 -0.23622 -1.13004c-0.303583,0.415126 -0.596555,0.815972 -0.854417,1.16887z"/>
</symbol>
<symbol id="Symbol102" viewBox="11.9658 -5.47503 0.111303 0.472862">
 <polygon class="fil0" points="11.9658,-5.00217 12.0771,-5.32104 11.9776,-5.47503 "/>
</symbol>
<symbol id="Symbol50" viewBox="12.9072 -8.55618 0.175236 0.72715">
 <path class="fil0" d="M13.0825 -8.55618c-0.0571654,0.0148307 -0.11572,0.0300669 -0.175236,0.0456102 0.0884449,0.399764 0.151154,0.681539 0.151154,0.681539l0.0240827 -0.72715z"/>
</symbol>
<symbol id="Symbol43" viewBox="4.49998 -1.31319 0.140276 0.171264">
 <path class="fil0" d="M4.50717 -1.31319l-0.00719291 0.110543 0.140276 0.0607205c0,0 -0.0491929,-0.063374 -0.133083,-0.171264z"/>
</symbol>
<symbol id="Fm22-29-0" viewBox="12.05 -7.25069 0.679461 0.785748">
 <polygon class="fil0" points="12.4764,-6.46494 12.7294,-7.19002 12.2234,-7.25069 12.05,-6.51119 "/>
</symbol>
<symbol id="Symbol23" viewBox="11.7451 -1.60701 1.11843 1.94057">
 <polygon class="fil0" points="11.7451,-1.45358 12.1187,0.333555 12.8636,0.333555 11.9812,-1.60701 "/>
</symbol>
<symbol id="Symbol8" viewBox="9.91801 -3.64386 0.595531 0.464693">
 <polygon class="fil0" points="10.5135,-3.17917 10.3285,-3.64386 9.91801,-3.22654 "/>
</symbol>
<symbol id="Fm1-24-0" viewBox="16.9885 -5.45225 0.000165354 2.75591e-005">
 <path class="fil1" d="M16.9885 -5.45225c2.75591e-005,1.1811e-005 0.000110236,1.1811e-005 0.000165354,2.75591e-005 0,0 -4.33071e-005,-1.5748e-005 -0.000165354,-2.75591e-005z"/>
</symbol>
<symbol id="Symbol232" viewBox="10.5069 -0.138724 0.531929 0.47228">
 <polygon class="fil0" points="10.5069,0.333555 11.0389,0.333555 10.5468,-0.138724 "/>
</symbol>
<symbol id="Symbol226" viewBox="10.5468 -1.45358 1.57192 1.78714">
 <polygon class="fil0" points="10.5947,-0.706039 10.5468,-0.138717 11.0388,0.333559 12.1187,0.333559 11.7451,-1.45358 "/>
</symbol>
<symbol id="Symbol214" viewBox="7.07096 -1.04841 1.59326 1.38196">
 <polygon class="fil0" points="7.4052,-1.04841 7.07096,0.0660945 7.26427,0.333555 8.66422,0.333555 8.66359,-0.104862 "/>
</symbol>
<symbol id="Symbol205" viewBox="9.28506 -5.17679 0.911528 1.42289">
 <polygon class="fil0" points="9.36303,-3.7539 10.1966,-3.97533 9.71825,-5.17679 9.28506,-4.73379 "/>
</symbol>
<symbol id="Symbol181" viewBox="5.79529 -1.78987 1.22287 1.26793">
 <polygon class="fil0" points="7.01817,-0.53263 5.83313,-1.78987 5.79529,-1.699 6.64597,-0.521937 "/>
</symbol>
<symbol id="Symbol176" viewBox="11.5089 -2.60748 0.472331 1.15389">
 <path class="fil0" d="M11.5089 -2.58363l0.23622 1.13004 0.23611 -0.153429 -0.454886 -1.00046c-0.0058189,0.00794488 -0.0116417,0.0159055 -0.0174449,0.0238465z"/>
</symbol>
<symbol id="Symbol141" viewBox="12.9072 -8.55618 0.175236 0.72715">
 <path class="fil0" d="M13.0825 -8.55618c-0.0571654,0.0148307 -0.11572,0.0300669 -0.175236,0.0456102 0.0884449,0.399764 0.151154,0.681539 0.151154,0.681539l0.0240827 -0.72715z"/>
</symbol>
<symbol id="Symbol137" viewBox="11.0866 -8.40206 1.40689 0.60128">
 <path class="fil0" d="M12.3525 -7.80078l0.141028 -0.60128c-0.70828,0.186638 -1.40689,0.374374 -1.40689,0.374374l1.26586 0.226906z"/>
</symbol>
<symbol id="Symbol132" viewBox="4.63537 -3.30216 0.0148504 0.0196378">
 <polygon class="fil0" points="4.63665,-3.30216 4.63537,-3.28252 4.65022,-3.28338 "/>
</symbol>
<symbol id="Symbol130" viewBox="9.91801 -3.64386 0.595531 0.464693">
 <polygon class="fil0" points="10.5135,-3.17917 10.3285,-3.64386 9.91801,-3.22654 "/>
</symbol>
<symbol id="Symbol79" viewBox="12.0034 -7.2748 0.22 0.76361">
 <polygon class="fil0" points="12.0034,-6.51624 12.05,-6.51119 12.2234,-7.25069 12.0223,-7.2748 "/>
</symbol>
<symbol id="Symbol111" viewBox="12.0771 -6.46494 1.59053 2.18533">
 <path class="fil0" d="M13.6676 -6.33572l-1.19125 -0.129224 -0.39928 1.14391 0.673209 1.04143c0.357972,-0.488472 0.679736,-0.926764 0.917319,-1.2491l0 -0.807012z"/>
</symbol>
<symbol id="Symbol94" viewBox="11.9266 -4.2796 1.74103 1.91831">
 <path class="fil0" d="M13.6676 -2.7028l0 -0.157736 -0.917319 -1.41907c-0.261539,0.356874 -0.542346,0.740417 -0.823709,1.12499l1.21549 0.793319 0.525539 -0.3415z"/>
</symbol>
<symbol id="Fm9-76-0" viewBox="10.0621 -1.41475 0.592346 0.956303">
 <path class="fil0" d="M10.0621 -0.603866l0.151512 0.145417 0.381028 -0.247583 0.0598071 -0.70872c-0.231835,0.317291 -0.43528,0.595803 -0.592346,0.810886z"/>
</symbol>
<symbol id="Fm48-48-0" viewBox="12.0771 -6.46494 1.59053 2.18533">
 <path class="fil0" d="M13.6676 -6.33572l-1.19125 -0.129224 -0.39928 1.14391 0.673209 1.04143c0.357972,-0.488472 0.679736,-0.926764 0.917319,-1.2491l0 -0.807012z"/>
</symbol>
<symbol id="Symbol40" viewBox="9.28506 -5.17679 0.911528 1.42289">
 <polygon class="fil0" points="9.36303,-3.7539 10.1966,-3.97533 9.71825,-5.17679 9.28506,-4.73379 "/>
</symbol>
<symbol id="Symbol36" viewBox="4.61061 -3.30217 0.0260276 0.0210945">
 <polygon class="fil0" points="4.61061,-3.28107 4.63537,-3.28252 4.63664,-3.30217 "/>
</symbol>
<symbol id="Fm14-21-0" viewBox="11.3047 -3.56051 0.621862 0.953043">
 <path class="fil0" d="M11.9266 -3.15462l-0.621862 -0.40589 0.180126 0.861724 0.0415276 0.0913189c0.132165,-0.180764 0.266236,-0.364055 0.400209,-0.547154z"/>
</symbol>
<symbol id="Symbol17" viewBox="8.57053 -0.503193 0.092878 0.264902">
 <polygon class="fil0" points="8.66341,-0.238291 8.66318,-0.397126 8.57053,-0.503193 "/>
</symbol>
<symbol id="Symbol3" viewBox="9.13278 -6.6474 0.585469 1.91361">
 <polygon class="fil0" points="9.71825,-5.17679 9.13278,-6.6474 9.28506,-4.73379 "/>
</symbol>
<symbol id="Fm66-60-0" viewBox="12.9072 -8.55618 0.175236 0.72715">
 <path class="fil0" d="M13.0825 -8.55618c-0.0571654,0.0148307 -0.11572,0.0300669 -0.175236,0.0456102 0.0884449,0.399764 0.151154,0.681539 0.151154,0.681539l0.0240827 -0.72715z"/>
</symbol>
<symbol id="Fm36-40-0" viewBox="9.91801 -3.64386 0.595531 0.464693">
 <polygon class="fil0" points="10.5135,-3.17917 10.3285,-3.64386 9.91801,-3.22654 "/>
</symbol>
<symbol id="Symbol220" viewBox="11.2518 -6.59778 0.751654 0.929083">
 <polygon class="fil0" points="12.0034,-6.51624 11.2518,-6.59778 11.8524,-5.6687 11.9978,-6.28866 "/>
</symbol>
<symbol id="Symbol199" viewBox="9.07207 -6.87815 0.0607047 0.230752">
 <polygon class="fil0" points="9.13278,-6.6474 9.11442,-6.87815 9.07207,-6.78018 9.08069,-6.77822 "/>
</symbol>
<symbol id="Symbol91" viewBox="7.96322 -3.7539 1.4385 0.486291">
 <polygon class="fil0" points="9.36303,-3.7539 7.96322,-3.38204 9.40172,-3.26761 "/>
</symbol>
<symbol id="Symbol70" viewBox="8.66341 -0.238299 0.0633898 0.180823">
 <polygon class="fil0" points="8.7268,-0.0574764 8.66341,-0.238299 8.66359,-0.104866 "/>
</symbol>
<symbol id="Symbol63" viewBox="9.7233 -0.603862 0.490362 0.464039">
 <path class="fil0" d="M9.7233 -0.139823l0.490362 -0.318622 -0.151516 -0.145417c-0.211331,0.289362 -0.338846,0.464039 -0.338846,0.464039z"/>
</symbol>
<symbol id="Symbol53" viewBox="10.8167 -4.149 0.0114606 0.00894488">
 <polygon class="fil0" points="10.8255,-4.149 10.8167,-4.14006 10.8281,-4.14311 "/>
</symbol>
<symbol id="Fm64-59-0" viewBox="12.4212 -10.7359 0.7335 2.2253">
 <path class="fil0" d="M13.1547 -10.7359l-0.7335 0c0.119587,0.564413 0.338598,1.55885 0.486071,2.2253 0.0595157,-0.0155276 0.118055,-0.0307756 0.175236,-0.0455984l0.0721929 -2.1797z"/>
</symbol>
<symbol id="Symbol47" viewBox="12.0034 -7.2748 0.22 0.76361">
 <polygon class="fil0" points="12.0034,-6.51624 12.05,-6.51119 12.2234,-7.25069 12.0223,-7.2748 "/>
</symbol>
<symbol id="Symbol34" viewBox="6.79309 -3.32825 1.77744 2.82506">
 <polygon class="fil0" points="8.57054,-0.503197 7.5801,-3.32825 6.79309,-1.50737 7.4052,-1.04841 7.58135,-1.6358 "/>
</symbol>
<symbol id="Symbol16" viewBox="12.0034 -7.2748 0.22 0.76361">
 <polygon class="fil0" points="12.0034,-6.51624 12.05,-6.51119 12.2234,-7.25069 12.0223,-7.2748 "/>
</symbol>
<symbol id="Symbol5" viewBox="4.61061 -3.30217 0.0260276 0.0210945">
 <polygon class="fil0" points="4.61061,-3.28107 4.63537,-3.28252 4.63664,-3.30217 "/>
</symbol>
<symbol id="Fm80-71-0" viewBox="11.4848 -2.69878 0.0415118 0.115154">
 <path class="fil0" d="M11.5264 -2.60747l-0.0415118 -0.0913071 0.0240669 0.115154c0.00580709,-0.00794488 0.011626,-0.0159016 0.0174449,-0.0238465z"/>
</symbol>
<symbol id="Fm0-23-0" viewBox="16.9765 -5.45272 0.0119567 0.000472441">
 <path class="fil1" d="M16.9765 -5.45242c0.00672047,-0.000291339 0.0111102,7.08661e-005 0.0119567,0.000169291 -0.00323622,-0.000582677 -0.00733465,-0.000610236 -0.0119567,-0.000169291z"/>
</symbol>
<symbol id="Symbol237" viewBox="10.1966 -4.07215 0.368807 0.428291">
 <polygon class="fil0" points="10.3285,-3.64386 10.5654,-3.88463 10.561,-4.07215 10.1966,-3.97533 "/>
</symbol>
<symbol id="Symbol221" viewBox="8.57053 -0.503193 0.092878 0.264902">
 <polygon class="fil0" points="8.66341,-0.238291 8.66318,-0.397126 8.57053,-0.503193 "/>
</symbol>
<symbol id="Symbol215" viewBox="12.7503 -5.5287 0.917319 2.66817">
 <path class="fil0" d="M13.6676 -5.5287c-0.237583,0.322323 -0.559346,0.760626 -0.917319,1.2491l0.917319 1.41907 0 -2.66817z"/>
</symbol>
<symbol id="Symbol200" viewBox="9.44339 -3.22654 1.24829 1.16103">
 <polygon class="fil0" points="9.44339,-2.74407 9.49739,-2.06552 10.6917,-2.73171 10.5135,-3.17917 9.91802,-3.22654 "/>
</symbol>
<symbol id="Symbol198" viewBox="7.39743 -7.07547 1.67464 3.74721">
 <polygon class="fil0" points="7.76982,-7.07547 7.39743,-3.84928 7.5801,-3.32826 9.07207,-6.78018 "/>
</symbol>
<symbol id="Symbol174" viewBox="11.7451 -1.60701 1.11843 1.94057">
 <polygon class="fil0" points="11.7451,-1.45358 12.1187,0.333555 12.8636,0.333555 11.9812,-1.60701 "/>
</symbol>
<symbol id="Symbol163" viewBox="4.49998 -1.31319 0.140276 0.171264">
 <path class="fil0" d="M4.50717 -1.31319l-0.00719291 0.110543 0.140276 0.0607205c0,0 -0.0491929,-0.063374 -0.133083,-0.171264z"/>
</symbol>
<symbol id="Symbol160" viewBox="9.28506 -5.17679 0.911528 1.42289">
 <polygon class="fil0" points="9.36303,-3.7539 10.1966,-3.97533 9.71825,-5.17679 9.28506,-4.73379 "/>
</symbol>
<symbol id="Symbol155" viewBox="6.79309 -3.32825 1.77744 2.82506">
 <polygon class="fil0" points="8.57054,-0.503197 7.5801,-3.32825 6.79309,-1.50737 7.4052,-1.04841 7.58135,-1.6358 "/>
</symbol>
<symbol id="Symbol147" viewBox="11.5089 -2.60748 0.472331 1.15389">
 <path class="fil0" d="M11.5089 -2.58363l0.23622 1.13004 0.23611 -0.153429 -0.454886 -1.00046c-0.0058189,0.00794488 -0.0116417,0.0159055 -0.0174449,0.0238465z"/>
</symbol>
<symbol id="Symbol142" viewBox="8.66318 -0.397126 0.638165 0.730681">
 <polygon class="fil0" points="8.66341,-0.238291 8.72679,-0.0574724 8.6636,-0.104874 8.66422,0.333555 9.30135,0.333555 8.66318,-0.397126 "/>
</symbol>
<symbol id="Symbol92" viewBox="9.40172 -3.26761 0.516291 0.523539">
 <polygon class="fil0" points="9.40172,-3.26761 9.44339,-2.74407 9.91802,-3.22655 "/>
</symbol>
<symbol id="Symbol95" viewBox="11.9812 -2.3613 1.68636 2.69485">
 <polygon class="fil0" points="13.1421,-2.3613 11.9812,-1.60701 12.8636,0.333551 13.6676,0.333551 13.6676,-2.0183 "/>
</symbol>
<symbol id="Symbol61" viewBox="9.36303 -3.97533 0.965516 0.748791">
 <polygon class="fil0" points="9.91802,-3.22654 10.3285,-3.64387 10.1966,-3.97533 9.36303,-3.75391 9.40172,-3.26761 "/>
</symbol>
<symbol id="Fm49-49-0" viewBox="11.8524 -6.28866 0.145433 0.813626">
 <polygon class="fil0" points="11.8524,-5.6687 11.9776,-5.47503 11.9978,-6.28866 "/>
</symbol>
<symbol id="Fm39-42-0" viewBox="4.39998 -3.28339 2.67097 3.61694">
 <path class="fil0" d="M6.64597 -0.521941l-1.35702 0.0389449 0.506335 -1.216 -1.14507 -1.58439 -0.0148465 0.000862205 -0.128193 1.96933c0.0838898,0.107906 0.133083,0.171264 0.133083,0.171264l-0.14028 -0.0607205 -0.1 1.53621 2.59076 0 0.0802087 -0.267461 -0.424984 -0.588039z"/>
</symbol>
<symbol id="Fm18-24-0" viewBox="9.71825 -5.99275 0.842752 2.01742">
 <polygon class="fil0" points="10.561,-4.07215 10.5162,-5.99275 9.71825,-5.17679 10.1966,-3.97533 "/>
</symbol>
<symbol id="Symbol27" viewBox="7.96322 -3.7539 1.4385 0.486291">
 <polygon class="fil0" points="9.36303,-3.7539 7.96322,-3.38204 9.40172,-3.26761 "/>
</symbol>
<symbol id="Symbol4" viewBox="6.79309 -3.32825 1.77744 2.82506">
 <polygon class="fil0" points="8.57054,-0.503197 7.5801,-3.32825 6.79309,-1.50737 7.4052,-1.04841 7.58135,-1.6358 "/>
</symbol>
<symbol id="Symbol2" viewBox="11.5264 -3.15462 1.61571 1.54761">
 <path class="fil0" d="M11.9812 -1.60701l1.16082 -0.754291 -1.21549 -0.793319c-0.133972,0.183098 -0.268039,0.36639 -0.40022,0.547154l0.45489 1.00046z"/>
</symbol>
<symbol id="Fm76-69-0" viewBox="10.5947 -2.58363 1.15046 1.87758">
 <path class="fil0" d="M10.6545 -1.41475l-0.0598189 0.708709 1.15046 -0.747539 -0.23622 -1.13004c-0.303583,0.415126 -0.596555,0.815972 -0.854417,1.16887z"/>
</symbol>
<symbol id="Fm56-54-0" viewBox="11.0866 -8.40206 1.40689 0.60128">
 <path class="fil0" d="M12.3525 -7.80078l0.141028 -0.60128c-0.70828,0.186638 -1.40689,0.374374 -1.40689,0.374374l1.26586 0.226906z"/>
</symbol>
<symbol id="Fm26-33-0" viewBox="6.79309 -3.32825 1.77744 2.82506">
 <polygon class="fil0" points="8.57054,-0.503197 7.5801,-3.32825 6.79309,-1.50737 7.4052,-1.04841 7.58135,-1.6358 "/>
</symbol>
<symbol id="Fm0-15-0" viewBox="3.15315 -5.33296 5.35488 4.52647">
 <path class="fil2" d="M8.50802 -5.33296l0 4.15361c0,0.205736 -0.167197,0.372862 -0.372906,0.372862l-4.60912 0c-0.205697,0 -0.37285,-0.167126 -0.37285,-0.372862l0 -4.15361 1.31556 0 1.36217 0 1.34106 0 1.3361 0z"/>
</symbol>
<symbol id="Symbol240" viewBox="10.0621 -1.41475 0.592346 0.956303">
 <path class="fil0" d="M10.0621 -0.603866l0.151512 0.145417 0.381028 -0.247583 0.0598071 -0.70872c-0.231835,0.317291 -0.43528,0.595803 -0.592346,0.810886z"/>
</symbol>
<symbol id="Symbol233" viewBox="10.5947 -2.58363 1.15046 1.87758">
 <path class="fil0" d="M10.6545 -1.41475l-0.0598189 0.708709 1.15046 -0.747539 -0.23622 -1.13004c-0.303583,0.415126 -0.596555,0.815972 -0.854417,1.16887z"/>
</symbol>
<symbol id="Symbol227" viewBox="10.6545 -4.038 0.854417 2.62325">
 <path class="fil0" d="M11.5089 -2.58363l-0.0240709 -0.11515 -0.608917 -1.33922 -0.221429 2.62325c0.257862,-0.352906 0.550835,-0.753736 0.854417,-1.16888z"/>
</symbol>
<symbol id="Symbol203" viewBox="8.66341 -0.238299 0.0633898 0.180823">
 <polygon class="fil0" points="8.7268,-0.0574764 8.66341,-0.238299 8.66359,-0.104866 "/>
</symbol>
<symbol id="Symbol188" viewBox="9.71825 -5.99275 0.842752 2.01742">
 <polygon class="fil0" points="10.561,-4.07215 10.5162,-5.99275 9.71825,-5.17679 10.1966,-3.97533 "/>
</symbol>
<symbol id="Symbol183" viewBox="9.7233 -0.603862 0.490362 0.464039">
 <path class="fil0" d="M9.7233 -0.139823l0.490362 -0.318622 -0.151516 -0.145417c-0.211331,0.289362 -0.338846,0.464039 -0.338846,0.464039z"/>
</symbol>
<symbol id="Symbol178" viewBox="7.96322 -3.7539 1.4385 0.486291">
 <polygon class="fil0" points="9.36303,-3.7539 7.96322,-3.38204 9.40172,-3.26761 "/>
</symbol>
<symbol id="Symbol156" viewBox="4.61061 -3.30217 0.0260276 0.0210945">
 <polygon class="fil0" points="4.61061,-3.28107 4.63537,-3.28252 4.63664,-3.30217 "/>
</symbol>
<symbol id="Symbol139" viewBox="8.57053 -0.503193 0.092878 0.264902">
 <polygon class="fil0" points="8.66341,-0.238291 8.66318,-0.397126 8.57053,-0.503193 "/>
</symbol>
<symbol id="Symbol115" viewBox="11.2518 -6.59778 0.751654 0.929083">
 <polygon class="fil0" points="12.0034,-6.51624 11.2518,-6.59778 11.8524,-5.6687 11.9978,-6.28866 "/>
</symbol>
<symbol id="Symbol72" viewBox="9.28506 -5.17679 0.911528 1.42289">
 <polygon class="fil0" points="9.36303,-3.7539 10.1966,-3.97533 9.71825,-5.17679 9.28506,-4.73379 "/>
</symbol>
<symbol id="Symbol97" viewBox="7.96322 -4.73379 1.39981 1.35175">
 <polygon class="fil0" points="9.28506,-4.73379 7.96322,-3.38204 9.36303,-3.7539 "/>
</symbol>
<symbol id="Fm74-68-0" viewBox="10.5069 -0.138724 0.531929 0.47228">
 <polygon class="fil0" points="10.5069,0.333555 11.0389,0.333555 10.5468,-0.138724 "/>
</symbol>
<symbol id="Fm4-43-0" viewBox="8.66096 -1.9487 1.88582 2.28225">
 <path class="fil0" d="M10.2137 -0.458453l-0.490358 0.318626c0,0 0.127512,-0.174681 0.338846,-0.464043l-1.40118 -1.34483 0.00222047 1.55158 0.638169 0.730665 1.20557 0 0.0398622 -0.472276 -0.333126 -0.319724z"/>
</symbol>
<symbol id="Symbol39" viewBox="9.91801 -3.64386 0.595531 0.464693">
 <polygon class="fil0" points="10.5135,-3.17917 10.3285,-3.64386 9.91801,-3.22654 "/>
</symbol>
<symbol id="Symbol35" viewBox="9.07207 -6.87815 0.0607047 0.230752">
 <polygon class="fil0" points="9.13278,-6.6474 9.11442,-6.87815 9.07207,-6.78018 9.08069,-6.77822 "/>
</symbol>
<symbol id="Fm20-27-0" viewBox="12.3525 -8.70528 1.31514 1.14024">
 <path class="fil0" d="M13.6676 -7.56505l0 -1.14024c-0.154469,0.0381417 -0.358858,0.0903898 -0.58515,0.149098l-0.0240866 0.727165c0,0 -0.0627047,-0.281776 -0.15115,-0.681555 -0.134791,0.0351693 -0.274433,0.0718189 -0.413709,0.108516l-0.141043 0.601276 1.31514 0.235736z"/>
</symbol>
<symbol id="Symbol18" viewBox="11.9978 -6.51624 0.0522047 0.227583">
 <polygon class="fil0" points="11.9978,-6.28865 12.05,-6.51118 12.0034,-6.51624 "/>
</symbol>
<symbol id="Fm1-27-0" viewBox="16.6699 -5.56352 0.000299213 0.000204724">
 <path class="fil1" d="M16.6702 -5.56331c-9.44882e-005,-6.69291e-005 -0.000208661,-0.000137795 -0.000291339,-0.000192913 -2.75591e-005,-4.33071e-005 5.51181e-005,3.93701e-005 0.000291339,0.000192913z"/>
</symbol>
<symbol id="Symbol222" viewBox="11.9978 -6.51624 0.0522047 0.227583">
 <polygon class="fil0" points="11.9978,-6.28865 12.05,-6.51118 12.0034,-6.51624 "/>
</symbol>
<symbol id="Symbol201" viewBox="4.61061 -3.30217 0.0260276 0.0210945">
 <polygon class="fil0" points="4.61061,-3.28107 4.63537,-3.28252 4.63664,-3.30217 "/>
</symbol>
<symbol id="Symbol197" viewBox="6.79309 -3.32825 1.77744 2.82506">
 <polygon class="fil0" points="8.57054,-0.503197 7.5801,-3.32825 6.79309,-1.50737 7.4052,-1.04841 7.58135,-1.6358 "/>
</symbol>
<symbol id="Symbol189" viewBox="10.3285 -3.88463 0.253445 0.710906">
 <polygon class="fil0" points="10.582,-3.17373 10.5654,-3.88463 10.3285,-3.64387 10.5135,-3.17917 "/>
</symbol>
<symbol id="Symbol171" viewBox="8.66318 -0.397126 0.638165 0.730681">
 <polygon class="fil0" points="8.66341,-0.238291 8.72679,-0.0574724 8.6636,-0.104874 8.66422,0.333555 9.30135,0.333555 8.66318,-0.397126 "/>
</symbol>
<symbol id="Symbol158" viewBox="8.66341 -0.238299 0.0633898 0.180823">
 <polygon class="fil0" points="8.7268,-0.0574764 8.66341,-0.238299 8.66359,-0.104866 "/>
</symbol>
<symbol id="Symbol146" viewBox="11.4848 -2.69878 0.0415118 0.115154">
 <path class="fil0" d="M11.5264 -2.60747l-0.0415118 -0.0913071 0.0240669 0.115154c0.00580709,-0.00794488 0.011626,-0.0159016 0.0174449,-0.0238465z"/>
</symbol>
<symbol id="Symbol83" viewBox="8.66318 -0.397126 0.638165 0.730681">
 <polygon class="fil0" points="8.66341,-0.238291 8.72679,-0.0574724 8.6636,-0.104874 8.66422,0.333555 9.30135,0.333555 8.66318,-0.397126 "/>
</symbol>
<symbol id="Symbol108" viewBox="4.39998 -3.28339 2.67097 3.61694">
 <path class="fil0" d="M6.64597 -0.521941l-1.35702 0.0389449 0.506335 -1.216 -1.14507 -1.58439 -0.0148465 0.000862205 -0.128193 1.96933c0.0838898,0.107906 0.133083,0.171264 0.133083,0.171264l-0.14028 -0.0607205 -0.1 1.53621 2.59076 0 0.0802087 -0.267461 -0.424984 -0.588039z"/>
</symbol>
<symbol id="Symbol107" viewBox="9.44339 -3.22654 1.24829 1.16103">
 <polygon class="fil0" points="9.44339,-2.74407 9.49739,-2.06552 10.6917,-2.73171 10.5135,-3.17917 9.91802,-3.22654 "/>
</symbol>
<symbol id="Symbol54" viewBox="10.5947 -2.58363 1.15046 1.87758">
 <path class="fil0" d="M10.6545 -1.41475l-0.0598189 0.708709 1.15046 -0.747539 -0.23622 -1.13004c-0.303583,0.415126 -0.596555,0.815972 -0.854417,1.16887z"/>
</symbol>
<symbol id="Fm68-62-0" viewBox="10.5468 -1.45358 1.57192 1.78714">
 <polygon class="fil0" points="10.5947,-0.706039 10.5468,-0.138717 11.0388,0.333559 12.1187,0.333559 11.7451,-1.45358 "/>
</symbol>
<symbol id="Symbol31" viewBox="9.7233 -0.603862 0.490362 0.464039">
 <path class="fil0" d="M9.7233 -0.139823l0.490362 -0.318622 -0.151516 -0.145417c-0.211331,0.289362 -0.338846,0.464039 -0.338846,0.464039z"/>
</symbol>
<symbol id="Symbol28" viewBox="9.40172 -3.26761 0.516291 0.523539">
 <polygon class="fil0" points="9.40172,-3.26761 9.44339,-2.74407 9.91802,-3.22655 "/>
</symbol>
<symbol id="Symbol26" viewBox="10.1966 -4.07215 0.368807 0.428291">
 <polygon class="fil0" points="10.3285,-3.64386 10.5654,-3.88463 10.561,-4.07215 10.1966,-3.97533 "/>
</symbol>
<symbol id="Symbol10" viewBox="4.63537 -3.30216 0.0148504 0.0196378">
 <polygon class="fil0" points="4.63665,-3.30216 4.63537,-3.28252 4.65022,-3.28338 "/>
</symbol>
<symbol id="Fm87-74-0" viewBox="7.96322 -3.7539 1.4385 0.486291">
 <polygon class="fil0" points="9.36303,-3.7539 7.96322,-3.38204 9.40172,-3.26761 "/>
</symbol>
<symbol id="Fm0-204-0" viewBox="2.57039 -10.6109 16.9944 10.9944">
 <polygon class="fil3" points="2.57039,0.383555 19.5648,0.383555 19.5648,-10.6109 2.57039,-10.6109 "/>
</symbol>
<symbol id="Symbol218" viewBox="11.0866 -8.40206 1.40689 0.60128">
 <path class="fil0" d="M12.3525 -7.80078l0.141028 -0.60128c-0.70828,0.186638 -1.40689,0.374374 -1.40689,0.374374l1.26586 0.226906z"/>
</symbol>
<symbol id="Symbol216" viewBox="11.9775 -6.51119 0.498819 1.19014">
 <polygon class="fil0" points="12.05,-6.51119 11.9978,-6.28866 11.9775,-5.47504 12.0771,-5.32105 12.4764,-6.46494 "/>
</symbol>
<symbol id="Symbol209" viewBox="4.63537 -3.30216 0.0148504 0.0196378">
 <polygon class="fil0" points="4.63665,-3.30216 4.63537,-3.28252 4.65022,-3.28338 "/>
</symbol>
<symbol id="Symbol194" viewBox="2.62985 -1.50865 1.45087 1.8422">
 <path class="fil0" d="M2.62985 0.333555l1.45087 0c-0.13415,-0.458472 -0.527193,-1.79143 -0.576677,-1.84092 -0.0498071,-0.0497913 -0.6685,1.36574 -0.874197,1.84092z"/>
</symbol>
<symbol id="Symbol179" viewBox="9.40172 -3.26761 0.516291 0.523539">
 <polygon class="fil0" points="9.40172,-3.26761 9.44339,-2.74407 9.91802,-3.22655 "/>
</symbol>
<symbol id="Symbol170" viewBox="12.9072 -8.55618 0.175236 0.72715">
 <path class="fil0" d="M13.0825 -8.55618c-0.0571654,0.0148307 -0.11572,0.0300669 -0.175236,0.0456102 0.0884449,0.399764 0.151154,0.681539 0.151154,0.681539l0.0240827 -0.72715z"/>
</symbol>
<symbol id="Symbol131" viewBox="9.28506 -5.17679 0.911528 1.42289">
 <polygon class="fil0" points="9.36303,-3.7539 10.1966,-3.97533 9.71825,-5.17679 9.28506,-4.73379 "/>
</symbol>
<symbol id="Symbol65" viewBox="9.13278 -6.6474 0.585469 1.91361">
 <polygon class="fil0" points="9.71825,-5.17679 9.13278,-6.6474 9.28506,-4.73379 "/>
</symbol>
<symbol id="Symbol98" viewBox="9.71825 -5.99275 0.842752 2.01742">
 <polygon class="fil0" points="10.561,-4.07215 10.5162,-5.99275 9.71825,-5.17679 10.1966,-3.97533 "/>
</symbol>
<symbol id="Symbol64" viewBox="11.5264 -3.15462 1.61571 1.54761">
 <path class="fil0" d="M11.9812 -1.60701l1.16082 -0.754291 -1.21549 -0.793319c-0.133972,0.183098 -0.268039,0.36639 -0.40022,0.547154l0.45489 1.00046z"/>
</symbol>
<symbol id="Fm67-61-0" viewBox="10.561 -4.14007 0.255665 0.255445">
 <polygon class="fil0" points="10.8167,-4.14007 10.561,-4.07215 10.5654,-3.88462 "/>
</symbol>
<symbol id="Fm60-56-0" viewBox="11.2518 -6.59778 0.751654 0.929083">
 <polygon class="fil0" points="12.0034,-6.51624 11.2518,-6.59778 11.8524,-5.6687 11.9978,-6.28866 "/>
</symbol>
<symbol id="Symbol44" viewBox="12.7503 -5.5287 0.917319 2.66817">
 <path class="fil0" d="M13.6676 -5.5287c-0.237583,0.322323 -0.559346,0.760626 -0.917319,1.2491l0.917319 1.41907 0 -2.66817z"/>
</symbol>
<symbol id="Fm41-44-0" viewBox="5.28895 -1.699 1.35702 1.216">
 <polygon class="fil0" points="6.64597,-0.521941 5.79529,-1.699 5.28895,-0.482996 "/>
</symbol>
<symbol id="Fm27-34-0" viewBox="7.39743 -7.07547 1.67464 3.74721">
 <polygon class="fil0" points="7.76982,-7.07547 7.39743,-3.84928 7.5801,-3.32826 9.07207,-6.78018 "/>
</symbol>
<symbol id="Fm78-70-0" viewBox="11.7451 -1.60701 1.11843 1.94057">
 <polygon class="fil0" points="11.7451,-1.45358 12.1187,0.333555 12.8636,0.333555 11.9812,-1.60701 "/>
</symbol>
<symbol id="Fm0-26-0" viewBox="16.6702 -5.56331 0.0204724 0.0167087">
 <path class="fil1" d="M16.6907 -5.5466c-0.0111811,-0.00979528 -0.0189173,-0.0156142 -0.0204724,-0.0167087 0.00601181,0.00397244 0.0129843,0.00972047 0.0204724,0.0167087z"/>
</symbol>
<symbol id="Fm0-32-0" viewBox="3.11706 -5.36089 5.43056 4.58333">
 <g style="clip-path:url(#id0)">
  <image transform="matrix(390.975 0 0 329.979 -1001.84 -124.593)" x="2.57039" y="0.361331" width="0.0138898" height="0.0138898" xlink:href="fusemachines_logo_Images\fusemachines_logo_ImgID1.png"/>
 </g>
</symbol>
<symbol id="Symbol228" viewBox="8.66318 -0.397126 0.638165 0.730681">
 <polygon class="fil0" points="8.66341,-0.238291 8.72679,-0.0574724 8.6636,-0.104874 8.66422,0.333555 9.30135,0.333555 8.66318,-0.397126 "/>
</symbol>
<symbol id="Symbol210" viewBox="6.99075 0.0660945 0.273516 0.267461">
 <polygon class="fil0" points="6.99075,0.333555 7.26426,0.333555 7.07096,0.0660945 "/>
</symbol>
<symbol id="Symbol206" viewBox="4.39998 -3.28339 2.67097 3.61694">
 <path class="fil0" d="M6.64597 -0.521941l-1.35702 0.0389449 0.506335 -1.216 -1.14507 -1.58439 -0.0148465 0.000862205 -0.128193 1.96933c0.0838898,0.107906 0.133083,0.171264 0.133083,0.171264l-0.14028 -0.0607205 -0.1 1.53621 2.59076 0 0.0802087 -0.267461 -0.424984 -0.588039z"/>
</symbol>
<symbol id="Symbol196" viewBox="9.13278 -6.6474 0.585469 1.91361">
 <polygon class="fil0" points="9.71825,-5.17679 9.13278,-6.6474 9.28506,-4.73379 "/>
</symbol>
<symbol id="Symbol190" viewBox="4.63665 -5.13946 2.26622 1.85608">
 <polygon class="fil0" points="6.18782,-3.37338 6.90287,-5.13946 4.63665,-3.30216 4.65022,-3.28338 "/>
</symbol>
<symbol id="Symbol184" viewBox="11.9812 -2.3613 1.68636 2.69485">
 <polygon class="fil0" points="13.1421,-2.3613 11.9812,-1.60701 12.8636,0.333551 13.6676,0.333551 13.6676,-2.0183 "/>
</symbol>
<symbol id="Symbol157" viewBox="7.4052 -1.63579 1.2584 1.53092">
 <polygon class="fil0" points="8.66341,-0.238291 8.57053,-0.503193 7.58135,-1.63579 7.4052,-1.0484 8.6636,-0.104874 "/>
</symbol>
<symbol id="Symbol124" viewBox="11.5264 -3.15462 1.61571 1.54761">
 <path class="fil0" d="M11.9812 -1.60701l1.16082 -0.754291 -1.21549 -0.793319c-0.133972,0.183098 -0.268039,0.36639 -0.40022,0.547154l0.45489 1.00046z"/>
</symbol>
<symbol id="Symbol81" viewBox="11.9978 -6.51624 0.0522047 0.227583">
 <polygon class="fil0" points="11.9978,-6.28865 12.05,-6.51118 12.0034,-6.51624 "/>
</symbol>
<symbol id="Symbol113" viewBox="7.07096 -1.04841 1.59326 1.38196">
 <polygon class="fil0" points="7.4052,-1.04841 7.07096,0.0660945 7.26427,0.333555 8.66422,0.333555 8.66359,-0.104862 "/>
</symbol>
<symbol id="Symbol109" viewBox="8.66096 -1.9487 1.88582 2.28225">
 <path class="fil0" d="M10.2137 -0.458453l-0.490358 0.318626c0,0 0.127512,-0.174681 0.338846,-0.464043l-1.40118 -1.34483 0.00222047 1.55158 0.638169 0.730665 1.20557 0 0.0398622 -0.472276 -0.333126 -0.319724z"/>
</symbol>
<symbol id="Fm69-63-0" viewBox="10.6545 -4.038 0.854417 2.62325">
 <path class="fil0" d="M11.5089 -2.58363l-0.0240709 -0.11515 -0.608917 -1.33922 -0.221429 2.62325c0.257862,-0.352906 0.550835,-0.753736 0.854417,-1.16888z"/>
</symbol>
<symbol id="Symbol45" viewBox="11.9775 -6.51119 0.498819 1.19014">
 <polygon class="fil0" points="12.05,-6.51119 11.9978,-6.28866 11.9775,-5.47504 12.0771,-5.32105 12.4764,-6.46494 "/>
</symbol>
<symbol id="Symbol41" viewBox="4.63537 -3.30216 0.0148504 0.0196378">
 <polygon class="fil0" points="4.63665,-3.30216 4.63537,-3.28252 4.65022,-3.28338 "/>
</symbol>
<symbol id="Symbol32" viewBox="11.5264 -3.15462 1.61571 1.54761">
 <path class="fil0" d="M11.9812 -1.60701l1.16082 -0.754291 -1.21549 -0.793319c-0.133972,0.183098 -0.268039,0.36639 -0.40022,0.547154l0.45489 1.00046z"/>
</symbol>
<symbol id="Symbol29" viewBox="9.36303 -3.97533 0.965516 0.748791">
 <polygon class="fil0" points="9.91802,-3.22654 10.3285,-3.64387 10.1966,-3.97533 9.36303,-3.75391 9.40172,-3.26761 "/>
</symbol>
<symbol id="Symbol19" viewBox="12.9072 -8.55618 0.175236 0.72715">
 <path class="fil0" d="M13.0825 -8.55618c-0.0571654,0.0148307 -0.11572,0.0300669 -0.175236,0.0456102 0.0884449,0.399764 0.151154,0.681539 0.151154,0.681539l0.0240827 -0.72715z"/>
</symbol>
<symbol id="Fm89-75-0" viewBox="9.40172 -3.26761 0.516291 0.523539">
 <polygon class="fil0" points="9.40172,-3.26761 9.44339,-2.74407 9.91802,-3.22655 "/>
</symbol>
<symbol id="Fm85-73-0" viewBox="10.1966 -4.07215 0.368807 0.428291">
 <polygon class="fil0" points="10.3285,-3.64386 10.5654,-3.88463 10.561,-4.07215 10.1966,-3.97533 "/>
</symbol>
<symbol id="Fm70-65-0" viewBox="10.8281 -4.15851 0.0579724 0.120516">
 <polygon class="fil0" points="10.8861,-4.15851 10.8281,-4.14312 10.8759,-4.038 "/>
</symbol>
<symbol id="Fm51-51-0" viewBox="12.7503 -5.5287 0.917319 2.66817">
 <path class="fil0" d="M13.6676 -5.5287c-0.237583,0.322323 -0.559346,0.760626 -0.917319,1.2491l0.917319 1.41907 0 -2.66817z"/>
</symbol>
<symbol id="Symbol241" viewBox="9.36303 -3.97533 0.965516 0.748791">
 <polygon class="fil0" points="9.91802,-3.22654 10.3285,-3.64387 10.1966,-3.97533 9.36303,-3.75391 9.40172,-3.26761 "/>
</symbol>
<symbol id="Symbol223" viewBox="12.4212 -10.7359 0.7335 2.2253">
 <path class="fil0" d="M13.1547 -10.7359l-0.7335 0c0.119587,0.564413 0.338598,1.55885 0.486071,2.2253 0.0595157,-0.0155276 0.118055,-0.0307756 0.175236,-0.0455984l0.0721929 -2.1797z"/>
</symbol>
<symbol id="Symbol191" viewBox="12.3525 -8.70528 1.31514 1.14024">
 <path class="fil0" d="M13.6676 -7.56505l0 -1.14024c-0.154469,0.0381417 -0.358858,0.0903898 -0.58515,0.149098l-0.0240866 0.727165c0,0 -0.0627047,-0.281776 -0.15115,-0.681555 -0.134791,0.0351693 -0.274433,0.0718189 -0.413709,0.108516l-0.141043 0.601276 1.31514 0.235736z"/>
</symbol>
<symbol id="Symbol150" viewBox="9.40172 -3.26761 0.516291 0.523539">
 <polygon class="fil0" points="9.40172,-3.26761 9.44339,-2.74407 9.91802,-3.22655 "/>
</symbol>
<symbol id="Symbol144" viewBox="10.5947 -2.58363 1.15046 1.87758">
 <path class="fil0" d="M10.6545 -1.41475l-0.0598189 0.708709 1.15046 -0.747539 -0.23622 -1.13004c-0.303583,0.415126 -0.596555,0.815972 -0.854417,1.16887z"/>
</symbol>
<symbol id="Symbol133" viewBox="6.99075 0.0660945 0.273516 0.267461">
 <polygon class="fil0" points="6.99075,0.333555 7.26426,0.333555 7.07096,0.0660945 "/>
</symbol>
<symbol id="Symbol87" viewBox="11.7451 -1.60701 1.11843 1.94057">
 <polygon class="fil0" points="11.7451,-1.45358 12.1187,0.333555 12.8636,0.333555 11.9812,-1.60701 "/>
</symbol>
<symbol id="Symbol120" viewBox="7.96322 -3.38203 1.48017 1.43333">
 <polygon class="fil0" points="9.40172,-3.26761 7.96322,-3.38203 8.66096,-1.9487 9.44339,-2.74407 "/>
</symbol>
<symbol id="Symbol76" viewBox="12.7503 -5.5287 0.917319 2.66817">
 <path class="fil0" d="M13.6676 -5.5287c-0.237583,0.322323 -0.559346,0.760626 -0.917319,1.2491l0.917319 1.41907 0 -2.66817z"/>
</symbol>
<symbol id="Symbol73" viewBox="4.63537 -3.30216 0.0148504 0.0196378">
 <polygon class="fil0" points="4.63665,-3.30216 4.63537,-3.28252 4.65022,-3.28338 "/>
</symbol>
<symbol id="Symbol99" viewBox="10.3285 -3.88463 0.253445 0.710906">
 <polygon class="fil0" points="10.582,-3.17373 10.5654,-3.88463 10.3285,-3.64387 10.5135,-3.17917 "/>
</symbol>
<symbol id="Symbol51" viewBox="8.66318 -0.397126 0.638165 0.730681">
 <polygon class="fil0" points="8.66341,-0.238291 8.72679,-0.0574724 8.6636,-0.104874 8.66422,0.333555 9.30135,0.333555 8.66318,-0.397126 "/>
</symbol>
<symbol id="Fm29-36-0" viewBox="9.44339 -3.22654 1.24829 1.16103">
 <polygon class="fil0" points="9.44339,-2.74407 9.49739,-2.06552 10.6917,-2.73171 10.5135,-3.17917 9.91802,-3.22654 "/>
</symbol>
<symbol id="Symbol24" viewBox="11.4848 -2.69878 0.0415118 0.115154">
 <path class="fil0" d="M11.5264 -2.60747l-0.0415118 -0.0913071 0.0240669 0.115154c0.00580709,-0.00794488 0.011626,-0.0159016 0.0174449,-0.0238465z"/>
</symbol>
<symbol id="Symbol6" viewBox="7.4052 -1.63579 1.2584 1.53092">
 <polygon class="fil0" points="8.66341,-0.238291 8.57053,-0.503193 7.58135,-1.63579 7.4052,-1.0484 8.6636,-0.104874 "/>
</symbol>
<symbol id="Fm8-64-0" viewBox="8.66318 -0.397126 0.638165 0.730681">
 <polygon class="fil0" points="8.66341,-0.238291 8.72679,-0.0574724 8.6636,-0.104874 8.66422,0.333555 9.30135,0.333555 8.66318,-0.397126 "/>
</symbol>
<symbol id="Fm43-45-0" viewBox="4.63537 -3.30216 0.0148504 0.0196378">
 <polygon class="fil0" points="4.63665,-3.30216 4.63537,-3.28252 4.65022,-3.28338 "/>
</symbol>
<symbol id="Symbol234" viewBox="11.7451 -1.60701 1.11843 1.94057">
 <polygon class="fil0" points="11.7451,-1.45358 12.1187,0.333555 12.8636,0.333555 11.9812,-1.60701 "/>
</symbol>
<symbol id="Symbol217" viewBox="10.1648 -8.94257 2.4555 5.35374">
 <path class="fil0" d="M12.0034 -6.51624l0.0188622 -0.758555 0.201138 0.0241102 0.129043 -0.550094 -1.26588 -0.226917c0,0 0.698626,-0.187736 1.40691,-0.374362l0.126791 -0.540512 -2.4555 1.16651 1.19969 4.18722 0.487862 -2.07986 -0.600571 -0.929083 0.751654 0.0815394z"/>
</symbol>
<symbol id="Symbol213" viewBox="11.8524 -6.28866 0.145433 0.813626">
 <polygon class="fil0" points="11.8524,-5.6687 11.9776,-5.47503 11.9978,-6.28866 "/>
</symbol>
<symbol id="Symbol211" viewBox="4.49998 -1.31319 0.140276 0.171264">
 <path class="fil0" d="M4.50717 -1.31319l-0.00719291 0.110543 0.140276 0.0607205c0,0 -0.0491929,-0.063374 -0.133083,-0.171264z"/>
</symbol>
<symbol id="Symbol202" viewBox="7.4052 -1.63579 1.2584 1.53092">
 <polygon class="fil0" points="8.66341,-0.238291 8.57053,-0.503193 7.58135,-1.63579 7.4052,-1.0484 8.6636,-0.104874 "/>
</symbol>
<symbol id="Symbol186" viewBox="11.5264 -3.15462 1.61571 1.54761">
 <path class="fil0" d="M11.9812 -1.60701l1.16082 -0.754291 -1.21549 -0.793319c-0.133972,0.183098 -0.268039,0.36639 -0.40022,0.547154l0.45489 1.00046z"/>
</symbol>
<symbol id="Symbol172" viewBox="10.8167 -4.149 0.0114606 0.00894488">
 <polygon class="fil0" points="10.8255,-4.149 10.8167,-4.14006 10.8281,-4.14311 "/>
</symbol>
<symbol id="Symbol165" viewBox="11.9775 -6.51119 0.498819 1.19014">
 <polygon class="fil0" points="12.05,-6.51119 11.9978,-6.28866 11.9775,-5.47504 12.0771,-5.32105 12.4764,-6.46494 "/>
</symbol>
<symbol id="Symbol153" viewBox="11.5264 -3.15462 1.61571 1.54761">
 <path class="fil0" d="M11.9812 -1.60701l1.16082 -0.754291 -1.21549 -0.793319c-0.133972,0.183098 -0.268039,0.36639 -0.40022,0.547154l0.45489 1.00046z"/>
</symbol>
<symbol id="Symbol135" viewBox="12.7503 -5.5287 0.917319 2.66817">
 <path class="fil0" d="M13.6676 -5.5287c-0.237583,0.322323 -0.559346,0.760626 -0.917319,1.2491l0.917319 1.41907 0 -2.66817z"/>
</symbol>
<symbol id="Symbol128" viewBox="7.4052 -1.63579 1.2584 1.53092">
 <polygon class="fil0" points="8.66341,-0.238291 8.57053,-0.503193 7.58135,-1.63579 7.4052,-1.0484 8.6636,-0.104874 "/>
</symbol>
<symbol id="Symbol126" viewBox="6.79309 -3.32825 1.77744 2.82506">
 <polygon class="fil0" points="8.57054,-0.503197 7.5801,-3.32825 6.79309,-1.50737 7.4052,-1.04841 7.58135,-1.6358 "/>
</symbol>
<symbol id="Symbol69" viewBox="7.4052 -1.63579 1.2584 1.53092">
 <polygon class="fil0" points="8.66341,-0.238291 8.57053,-0.503193 7.58135,-1.63579 7.4052,-1.0484 8.6636,-0.104874 "/>
</symbol>
<symbol id="Symbol105" viewBox="2.58602 -3.76431 1.92115 2.56165">
 <path class="fil0" d="M2.58602 -3.76431l0 1.7331 1.91396 0.828555 0.00719291 -0.110539c-0.373445,-0.480362 -1.43582,-1.84524 -1.92115,-2.45111z"/>
</symbol>
<symbol id="Fm54-53-0" viewBox="10.1648 -8.94257 2.4555 5.35374">
 <path class="fil0" d="M12.0034 -6.51624l0.0188622 -0.758555 0.201138 0.0241102 0.129043 -0.550094 -1.26588 -0.226917c0,0 0.698626,-0.187736 1.40691,-0.374362l0.126791 -0.540512 -2.4555 1.16651 1.19969 4.18722 0.487862 -2.07986 -0.600571 -0.929083 0.751654 0.0815394z"/>
</symbol>
<symbol id="Symbol13" viewBox="12.7503 -5.5287 0.917319 2.66817">
 <path class="fil0" d="M13.6676 -5.5287c-0.237583,0.322323 -0.559346,0.760626 -0.917319,1.2491l0.917319 1.41907 0 -2.66817z"/>
</symbol>
<symbol id="Fm72-67-0" viewBox="10.8167 -4.149 0.0114606 0.00894488">
 <polygon class="fil0" points="10.8255,-4.149 10.8167,-4.14006 10.8281,-4.14311 "/>
</symbol>
<symbol id="Fm45-46-0" viewBox="6.99075 0.0660945 0.273516 0.267461">
 <polygon class="fil0" points="6.99075,0.333555 7.26426,0.333555 7.07096,0.0660945 "/>
</symbol>
<symbol id="Fm28-35-0" viewBox="9.07207 -6.87815 0.0607047 0.230752">
 <polygon class="fil0" points="9.13278,-6.6474 9.11442,-6.87815 9.07207,-6.78018 9.08069,-6.77822 "/>
</symbol>
<symbol id="Symbol239" viewBox="9.40172 -3.26761 0.516291 0.523539">
 <polygon class="fil0" points="9.40172,-3.26761 9.44339,-2.74407 9.91802,-3.22655 "/>
</symbol>
<symbol id="Symbol230" viewBox="7.96322 -3.38203 1.48017 1.43333">
 <polygon class="fil0" points="9.40172,-3.26761 7.96322,-3.38203 8.66096,-1.9487 9.44339,-2.74407 "/>
</symbol>
<symbol id="Symbol212" viewBox="12.0771 -6.46494 1.59053 2.18533">
 <path class="fil0" d="M13.6676 -6.33572l-1.19125 -0.129224 -0.39928 1.14391 0.673209 1.04143c0.357972,-0.488472 0.679736,-0.926764 0.917319,-1.2491l0 -0.807012z"/>
</symbol>
<symbol id="Symbol207" viewBox="8.66096 -1.9487 1.88582 2.28225">
 <path class="fil0" d="M10.2137 -0.458453l-0.490358 0.318626c0,0 0.127512,-0.174681 0.338846,-0.464043l-1.40118 -1.34483 0.00222047 1.55158 0.638169 0.730665 1.20557 0 0.0398622 -0.472276 -0.333126 -0.319724z"/>
</symbol>
<symbol id="Symbol195" viewBox="2.58602 -3.76431 1.92115 2.56165">
 <path class="fil0" d="M2.58602 -3.76431l0 1.7331 1.91396 0.828555 0.00719291 -0.110539c-0.373445,-0.480362 -1.43582,-1.84524 -1.92115,-2.45111z"/>
</symbol>
<symbol id="Symbol187" viewBox="7.96322 -4.73379 1.39981 1.35175">
 <polygon class="fil0" points="9.28506,-4.73379 7.96322,-3.38204 9.36303,-3.7539 "/>
</symbol>
<symbol id="Symbol180" viewBox="9.36303 -3.97533 0.965516 0.748791">
 <polygon class="fil0" points="9.91802,-3.22654 10.3285,-3.64387 10.1966,-3.97533 9.36303,-3.75391 9.40172,-3.26761 "/>
</symbol>
<symbol id="Symbol175" viewBox="11.4848 -2.69878 0.0415118 0.115154">
 <path class="fil0" d="M11.5264 -2.60747l-0.0415118 -0.0913071 0.0240669 0.115154c0.00580709,-0.00794488 0.011626,-0.0159016 0.0174449,-0.0238465z"/>
</symbol>
<symbol id="Symbol166" viewBox="11.0866 -8.40206 1.40689 0.60128">
 <path class="fil0" d="M12.3525 -7.80078l0.141028 -0.60128c-0.70828,0.186638 -1.40689,0.374374 -1.40689,0.374374l1.26586 0.226906z"/>
</symbol>
<symbol id="Symbol125" viewBox="9.13278 -6.6474 0.585469 1.91361">
 <polygon class="fil0" points="9.71825,-5.17679 9.13278,-6.6474 9.28506,-4.73379 "/>
</symbol>
<symbol id="Symbol85" viewBox="10.8167 -4.149 0.0114606 0.00894488">
 <polygon class="fil0" points="10.8255,-4.149 10.8167,-4.14006 10.8281,-4.14311 "/>
</symbol>
<symbol id="Symbol77" viewBox="11.9775 -6.51119 0.498819 1.19014">
 <polygon class="fil0" points="12.05,-6.51119 11.9978,-6.28866 11.9775,-5.47504 12.0771,-5.32105 12.4764,-6.46494 "/>
</symbol>
<symbol id="Symbol57" viewBox="11.5089 -2.60748 0.472331 1.15389">
 <path class="fil0" d="M11.5089 -2.58363l0.23622 1.13004 0.23611 -0.153429 -0.454886 -1.00046c-0.0058189,0.00794488 -0.0116417,0.0159055 -0.0174449,0.0238465z"/>
</symbol>
<symbol id="Symbol48" viewBox="8.57053 -0.503193 0.092878 0.264902">
 <polygon class="fil0" points="8.66341,-0.238291 8.66318,-0.397126 8.57053,-0.503193 "/>
</symbol>
<symbol id="Symbol46" viewBox="11.0866 -8.40206 1.40689 0.60128">
 <path class="fil0" d="M12.3525 -7.80078l0.141028 -0.60128c-0.70828,0.186638 -1.40689,0.374374 -1.40689,0.374374l1.26586 0.226906z"/>
</symbol>
<symbol id="Fm21-28-0" viewBox="11.9658 -5.47503 0.111303 0.472862">
 <polygon class="fil0" points="11.9658,-5.00217 12.0771,-5.32104 11.9776,-5.47503 "/>
</symbol>
<symbol id="Symbol25" viewBox="11.5089 -2.60748 0.472331 1.15389">
 <path class="fil0" d="M11.5089 -2.58363l0.23622 1.13004 0.23611 -0.153429 -0.454886 -1.00046c-0.0058189,0.00794488 -0.0116417,0.0159055 -0.0174449,0.0238465z"/>
</symbol>
<symbol id="Symbol20" viewBox="8.66318 -0.397126 0.638165 0.730681">
 <polygon class="fil0" points="8.66341,-0.238291 8.72679,-0.0574724 8.6636,-0.104874 8.66422,0.333555 9.30135,0.333555 8.66318,-0.397126 "/>
</symbol>
<symbol id="Fm58-55-0" viewBox="12.0034 -7.2748 0.22 0.76361">
 <polygon class="fil0" points="12.0034,-6.51624 12.05,-6.51119 12.2234,-7.25069 12.0223,-7.2748 "/>
</symbol>
<symbol id="Fm53-52-0" viewBox="11.9775 -6.51119 0.498819 1.19014">
 <polygon class="fil0" points="12.05,-6.51119 11.9978,-6.28866 11.9775,-5.47504 12.0771,-5.32105 12.4764,-6.46494 "/>
</symbol>
<symbol id="Fm38-41-0" viewBox="9.28506 -5.17679 0.911528 1.42289">
 <polygon class="fil0" points="9.36303,-3.7539 10.1966,-3.97533 9.71825,-5.17679 9.28506,-4.73379 "/>
</symbol>
<symbol id="Symbol238" viewBox="7.96322 -3.7539 1.4385 0.486291">
 <polygon class="fil0" points="9.36303,-3.7539 7.96322,-3.38204 9.40172,-3.26761 "/>
</symbol>
<symbol id="Symbol173" viewBox="10.5947 -2.58363 1.15046 1.87758">
 <path class="fil0" d="M10.6545 -1.41475l-0.0598189 0.708709 1.15046 -0.747539 -0.23622 -1.13004c-0.303583,0.415126 -0.596555,0.815972 -0.854417,1.16887z"/>
</symbol>
<symbol id="Symbol145" viewBox="11.7451 -1.60701 1.11843 1.94057">
 <polygon class="fil0" points="11.7451,-1.45358 12.1187,0.333555 12.8636,0.333555 11.9812,-1.60701 "/>
</symbol>
<symbol id="Symbol122" viewBox="10.0621 -1.41475 0.592346 0.956303">
 <path class="fil0" d="M10.0621 -0.603866l0.151512 0.145417 0.381028 -0.247583 0.0598071 -0.70872c-0.231835,0.317291 -0.43528,0.595803 -0.592346,0.810886z"/>
</symbol>
<symbol id="Symbol121" viewBox="10.5069 -0.138724 0.531929 0.47228">
 <polygon class="fil0" points="10.5069,0.333555 11.0389,0.333555 10.5468,-0.138724 "/>
</symbol>
<symbol id="Symbol117" viewBox="10.561 -4.14007 0.255665 0.255445">
 <polygon class="fil0" points="10.8167,-4.14007 10.561,-4.07215 10.5654,-3.88462 "/>
</symbol>
<symbol id="Symbol114" viewBox="10.1648 -8.94257 2.4555 5.35374">
 <path class="fil0" d="M12.0034 -6.51624l0.0188622 -0.758555 0.201138 0.0241102 0.129043 -0.550094 -1.26588 -0.226917c0,0 0.698626,-0.187736 1.40691,-0.374362l0.126791 -0.540512 -2.4555 1.16651 1.19969 4.18722 0.487862 -2.07986 -0.600571 -0.929083 0.751654 0.0815394z"/>
</symbol>
<symbol id="Symbol74" viewBox="6.99075 0.0660945 0.273516 0.267461">
 <polygon class="fil0" points="6.99075,0.333555 7.26426,0.333555 7.07096,0.0660945 "/>
</symbol>
<symbol id="Symbol106" viewBox="7.39743 -7.07547 1.67464 3.74721">
 <polygon class="fil0" points="7.76982,-7.07547 7.39743,-3.84928 7.5801,-3.32826 9.07207,-6.78018 "/>
</symbol>
<symbol id="Symbol100" viewBox="4.63665 -5.13946 2.26622 1.85608">
 <polygon class="fil0" points="6.18782,-3.37338 6.90287,-5.13946 4.63665,-3.30216 4.65022,-3.28338 "/>
</symbol>
<symbol id="Symbol62" viewBox="5.79529 -1.78987 1.22287 1.26793">
 <polygon class="fil0" points="7.01817,-0.53263 5.83313,-1.78987 5.79529,-1.699 6.64597,-0.521937 "/>
</symbol>
<symbol id="Symbol52" viewBox="10.8281 -4.15851 0.0579724 0.120516">
 <polygon class="fil0" points="10.8861,-4.15851 10.8281,-4.14312 10.8759,-4.038 "/>
</symbol>
<symbol id="Symbol37" viewBox="7.4052 -1.63579 1.2584 1.53092">
 <polygon class="fil0" points="8.66341,-0.238291 8.57053,-0.503193 7.58135,-1.63579 7.4052,-1.0484 8.6636,-0.104874 "/>
</symbol>
<symbol id="Fm23-30-0" viewBox="2.62985 -1.50865 1.45087 1.8422">
 <path class="fil0" d="M2.62985 0.333555l1.45087 0c-0.13415,-0.458472 -0.527193,-1.79143 -0.576677,-1.84092 -0.0498071,-0.0497913 -0.6685,1.36574 -0.874197,1.84092z"/>
</symbol>
<symbol id="Symbol11" viewBox="6.99075 0.0660945 0.273516 0.267461">
 <polygon class="fil0" points="6.99075,0.333555 7.26426,0.333555 7.07096,0.0660945 "/>
</symbol>
<symbol id="Fm3-37-0" viewBox="4.61061 -3.30217 0.0260276 0.0210945">
 <polygon class="fil0" points="4.61061,-3.28107 4.63537,-3.28252 4.63664,-3.30217 "/>
</symbol>
<symbol id="Symbol229" viewBox="10.8281 -4.15851 0.0579724 0.120516">
 <polygon class="fil0" points="10.8861,-4.15851 10.8281,-4.14312 10.8759,-4.038 "/>
</symbol>
<symbol id="Symbol167" viewBox="12.0034 -7.2748 0.22 0.76361">
 <polygon class="fil0" points="12.0034,-6.51624 12.05,-6.51119 12.2234,-7.25069 12.0223,-7.2748 "/>
</symbol>
<symbol id="Symbol143" viewBox="10.8167 -4.149 0.0114606 0.00894488">
 <polygon class="fil0" points="10.8255,-4.149 10.8167,-4.14006 10.8281,-4.14311 "/>
</symbol>
<symbol id="Symbol68" viewBox="4.61061 -3.30217 0.0260276 0.0210945">
 <polygon class="fil0" points="4.61061,-3.28107 4.63537,-3.28252 4.63664,-3.30217 "/>
</symbol>
<symbol id="Symbol14" viewBox="11.9775 -6.51119 0.498819 1.19014">
 <polygon class="fil0" points="12.05,-6.51119 11.9978,-6.28866 11.9775,-5.47504 12.0771,-5.32105 12.4764,-6.46494 "/>
</symbol>
<symbol id="Symbol12" viewBox="4.49998 -1.31319 0.140276 0.171264">
 <path class="fil0" d="M4.50717 -1.31319l-0.00719291 0.110543 0.140276 0.0607205c0,0 -0.0491929,-0.063374 -0.133083,-0.171264z"/>
</symbol>
<symbol id="Fm6-57-0" viewBox="8.57053 -0.503193 0.092878 0.264902">
 <polygon class="fil0" points="8.66341,-0.238291 8.66318,-0.397126 8.57053,-0.503193 "/>
</symbol>
<symbol id="Fm31-38-0" viewBox="7.4052 -1.63579 1.2584 1.53092">
 <polygon class="fil0" points="8.66341,-0.238291 8.57053,-0.503193 7.58135,-1.63579 7.4052,-1.0484 8.6636,-0.104874 "/>
</symbol>
<symbol id="Fm12-19-0" viewBox="9.7233 -0.603862 0.490362 0.464039">
 <path class="fil0" d="M9.7233 -0.139823l0.490362 -0.318622 -0.151516 -0.145417c-0.211331,0.289362 -0.338846,0.464039 -0.338846,0.464039z"/>
</symbol>
<symbol id="Symbol225" viewBox="10.561 -4.14007 0.255665 0.255445">
 <polygon class="fil0" points="10.8167,-4.14007 10.561,-4.07215 10.5654,-3.88462 "/>
</symbol>
<symbol id="Symbol193" viewBox="12.05 -7.25069 0.679461 0.785748">
 <polygon class="fil0" points="12.4764,-6.46494 12.7294,-7.19002 12.2234,-7.25069 12.05,-6.51119 "/>
</symbol>
<symbol id="Symbol159" viewBox="9.91801 -3.64386 0.595531 0.464693">
 <polygon class="fil0" points="10.5135,-3.17917 10.3285,-3.64386 9.91801,-3.22654 "/>
</symbol>
<symbol id="Symbol138" viewBox="12.0034 -7.2748 0.22 0.76361">
 <polygon class="fil0" points="12.0034,-6.51624 12.05,-6.51119 12.2234,-7.25069 12.0223,-7.2748 "/>
</symbol>
<symbol id="Symbol93" viewBox="9.36303 -3.97533 0.965516 0.748791">
 <polygon class="fil0" points="9.91802,-3.22654 10.3285,-3.64387 10.1966,-3.97533 9.36303,-3.75391 9.40172,-3.26761 "/>
</symbol>
<symbol id="Symbol118" viewBox="10.5468 -1.45358 1.57192 1.78714">
 <polygon class="fil0" points="10.5947,-0.706039 10.5468,-0.138717 11.0388,0.333559 12.1187,0.333559 11.7451,-1.45358 "/>
</symbol>
<symbol id="Symbol112" viewBox="11.8524 -6.28866 0.145433 0.813626">
 <polygon class="fil0" points="11.8524,-5.6687 11.9776,-5.47503 11.9978,-6.28866 "/>
</symbol>
<symbol id="Symbol67" viewBox="9.07207 -6.87815 0.0607047 0.230752">
 <polygon class="fil0" points="9.13278,-6.6474 9.11442,-6.87815 9.07207,-6.78018 9.08069,-6.77822 "/>
</symbol>
<symbol id="Symbol59" viewBox="7.96322 -3.7539 1.4385 0.486291">
 <polygon class="fil0" points="9.36303,-3.7539 7.96322,-3.38204 9.40172,-3.26761 "/>
</symbol>
<symbol id="Symbol58" viewBox="10.1966 -4.07215 0.368807 0.428291">
 <polygon class="fil0" points="10.3285,-3.64386 10.5654,-3.88463 10.561,-4.07215 10.1966,-3.97533 "/>
</symbol>
<symbol id="Fm5-50-0" viewBox="7.07096 -1.04841 1.59326 1.38196">
 <polygon class="fil0" points="7.4052,-1.04841 7.07096,0.0660945 7.26427,0.333555 8.66422,0.333555 8.66359,-0.104862 "/>
</symbol>
<symbol id="Fm24-31-0" viewBox="2.58602 -3.76431 1.92115 2.56165">
 <path class="fil0" d="M2.58602 -3.76431l0 1.7331 1.91396 0.828555 0.00719291 -0.110539c-0.373445,-0.480362 -1.43582,-1.84524 -1.92115,-2.45111z"/>
</symbol>
<symbol id="Fm19-25-0" viewBox="10.3285 -3.88463 0.253445 0.710906">
 <polygon class="fil0" points="10.582,-3.17373 10.5654,-3.88463 10.3285,-3.64387 10.5135,-3.17917 "/>
</symbol>
<symbol id="Fm17-23-0" viewBox="7.96322 -4.73379 1.39981 1.35175">
 <polygon class="fil0" points="9.28506,-4.73379 7.96322,-3.38204 9.36303,-3.7539 "/>
</symbol>
<symbol id="Symbol30" viewBox="5.79529 -1.78987 1.22287 1.26793">
 <polygon class="fil0" points="7.01817,-0.53263 5.83313,-1.78987 5.79529,-1.699 6.64597,-0.521937 "/>
</symbol>
<symbol id="Symbol21" viewBox="10.8167 -4.149 0.0114606 0.00894488">
 <polygon class="fil0" points="10.8255,-4.149 10.8167,-4.14006 10.8281,-4.14311 "/>
</symbol>
<symbol id="Fm63-58-0" viewBox="11.9978 -6.51624 0.0522047 0.227583">
 <polygon class="fil0" points="11.9978,-6.28865 12.05,-6.51118 12.0034,-6.51624 "/>
</symbol>
<symbol id="Symbol208" viewBox="5.28895 -1.699 1.35702 1.216">
 <polygon class="fil0" points="6.64597,-0.521941 5.79529,-1.699 5.28895,-0.482996 "/>
</symbol>
<symbol id="Symbol168" viewBox="8.57053 -0.503193 0.092878 0.264902">
 <polygon class="fil0" points="8.66341,-0.238291 8.66318,-0.397126 8.57053,-0.503193 "/>
</symbol>
<symbol id="Symbol140" viewBox="11.9978 -6.51624 0.0522047 0.227583">
 <polygon class="fil0" points="11.9978,-6.28865 12.05,-6.51118 12.0034,-6.51624 "/>
</symbol>
<symbol id="Symbol136" viewBox="11.9775 -6.51119 0.498819 1.19014">
 <polygon class="fil0" points="12.05,-6.51119 11.9978,-6.28866 11.9775,-5.47504 12.0771,-5.32105 12.4764,-6.46494 "/>
</symbol>
<symbol id="Symbol134" viewBox="4.49998 -1.31319 0.140276 0.171264">
 <path class="fil0" d="M4.50717 -1.31319l-0.00719291 0.110543 0.140276 0.0607205c0,0 -0.0491929,-0.063374 -0.133083,-0.171264z"/>
</symbol>
<symbol id="Symbol129" viewBox="8.66341 -0.238299 0.0633898 0.180823">
 <polygon class="fil0" points="8.7268,-0.0574764 8.66341,-0.238299 8.66359,-0.104866 "/>
</symbol>
<symbol id="Symbol127" viewBox="4.61061 -3.30217 0.0260276 0.0210945">
 <polygon class="fil0" points="4.61061,-3.28107 4.63537,-3.28252 4.63664,-3.30217 "/>
</symbol>
<symbol id="Symbol123" viewBox="9.7233 -0.603862 0.490362 0.464039">
 <path class="fil0" d="M9.7233 -0.139823l0.490362 -0.318622 -0.151516 -0.145417c-0.211331,0.289362 -0.338846,0.464039 -0.338846,0.464039z"/>
</symbol>
<symbol id="Symbol88" viewBox="11.4848 -2.69878 0.0415118 0.115154">
 <path class="fil0" d="M11.5264 -2.60747l-0.0415118 -0.0913071 0.0240669 0.115154c0.00580709,-0.00794488 0.011626,-0.0159016 0.0174449,-0.0238465z"/>
</symbol>
<symbol id="Symbol84" viewBox="10.8281 -4.15851 0.0579724 0.120516">
 <polygon class="fil0" points="10.8861,-4.15851 10.8281,-4.14312 10.8759,-4.038 "/>
</symbol>
<symbol id="Symbol119" viewBox="10.6545 -4.038 0.854417 2.62325">
 <path class="fil0" d="M11.5089 -2.58363l-0.0240709 -0.11515 -0.608917 -1.33922 -0.221429 2.62325c0.257862,-0.352906 0.550835,-0.753736 0.854417,-1.16888z"/>
</symbol>
<symbol id="Symbol82" viewBox="12.9072 -8.55618 0.175236 0.72715">
 <path class="fil0" d="M13.0825 -8.55618c-0.0571654,0.0148307 -0.11572,0.0300669 -0.175236,0.0456102 0.0884449,0.399764 0.151154,0.681539 0.151154,0.681539l0.0240827 -0.72715z"/>
</symbol>
<symbol id="Symbol80" viewBox="8.57053 -0.503193 0.092878 0.264902">
 <polygon class="fil0" points="8.66341,-0.238291 8.66318,-0.397126 8.57053,-0.503193 "/>
</symbol>
<symbol id="Symbol75" viewBox="4.49998 -1.31319 0.140276 0.171264">
 <path class="fil0" d="M4.50717 -1.31319l-0.00719291 0.110543 0.140276 0.0607205c0,0 -0.0491929,-0.063374 -0.133083,-0.171264z"/>
</symbol>
<symbol id="Symbol103" viewBox="12.05 -7.25069 0.679461 0.785748">
 <polygon class="fil0" points="12.4764,-6.46494 12.7294,-7.19002 12.2234,-7.25069 12.05,-6.51119 "/>
</symbol>
<symbol id="Symbol101" viewBox="12.3525 -8.70528 1.31514 1.14024">
 <path class="fil0" d="M13.6676 -7.56505l0 -1.14024c-0.154469,0.0381417 -0.358858,0.0903898 -0.58515,0.149098l-0.0240866 0.727165c0,0 -0.0627047,-0.281776 -0.15115,-0.681555 -0.134791,0.0351693 -0.274433,0.0718189 -0.413709,0.108516l-0.141043 0.601276 1.31514 0.235736z"/>
</symbol>
<symbol id="Fm71-66-0" viewBox="7.96322 -3.38203 1.48017 1.43333">
 <polygon class="fil0" points="9.40172,-3.26761 7.96322,-3.38203 8.66096,-1.9487 9.44339,-2.74407 "/>
</symbol>
<symbol id="Symbol49" viewBox="11.9978 -6.51624 0.0522047 0.227583">
 <polygon class="fil0" points="11.9978,-6.28865 12.05,-6.51118 12.0034,-6.51624 "/>
</symbol>
<symbol id="Symbol38" viewBox="8.66341 -0.238299 0.0633898 0.180823">
 <polygon class="fil0" points="8.7268,-0.0574764 8.66341,-0.238299 8.66359,-0.104866 "/>
</symbol>
<symbol id="Symbol33" viewBox="9.13278 -6.6474 0.585469 1.91361">
 <polygon class="fil0" points="9.71825,-5.17679 9.13278,-6.6474 9.28506,-4.73379 "/>
</symbol>
<symbol id="Symbol22" viewBox="10.5947 -2.58363 1.15046 1.87758">
 <path class="fil0" d="M10.6545 -1.41475l-0.0598189 0.708709 1.15046 -0.747539 -0.23622 -1.13004c-0.303583,0.415126 -0.596555,0.815972 -0.854417,1.16887z"/>
</symbol>
<symbol id="Symbol1" viewBox="9.7233 -0.603862 0.490362 0.464039">
 <path class="fil0" d="M9.7233 -0.139823l0.490362 -0.318622 -0.151516 -0.145417c-0.211331,0.289362 -0.338846,0.464039 -0.338846,0.464039z"/>
</symbol>
<symbol id="Fm83-72-0" viewBox="11.5089 -2.60748 0.472331 1.15389">
 <path class="fil0" d="M11.5089 -2.58363l0.23622 1.13004 0.23611 -0.153429 -0.454886 -1.00046c-0.0058189,0.00794488 -0.0116417,0.0159055 -0.0174449,0.0238465z"/>
</symbol>
<symbol id="Fm34-39-0" viewBox="8.66341 -0.238299 0.0633898 0.180823">
 <polygon class="fil0" points="8.7268,-0.0574764 8.66341,-0.238299 8.66359,-0.104866 "/>
</symbol>
<symbol id="Fm16-22-0" viewBox="11.5264 -3.15462 1.61571 1.54761">
 <path class="fil0" d="M11.9812 -1.60701l1.16082 -0.754291 -1.21549 -0.793319c-0.133972,0.183098 -0.268039,0.36639 -0.40022,0.547154l0.45489 1.00046z"/>
</symbol>
<symbol id="Fm1-17-0" viewBox="16.6699 -5.56352 0.0207677 0.0169173">
 <path class="fil4" d="M16.6907 -5.5466c-0.0111811,-0.00979528 -0.0189173,-0.0156142 -0.0204724,-0.0167087 0.00601181,0.00397244 0.0129843,0.00972047 0.0204724,0.0167087z"/>
 <path class="fil4" d="M16.6702 -5.56331c-9.44882e-005,-6.69291e-005 -0.000208661,-0.000137795 -0.000291339,-0.000192913 -2.75591e-005,-4.33071e-005 5.51181e-005,3.93701e-005 0.000291339,0.000192913z"/>
</symbol>
<symbol id="Fm0-16-0" viewBox="16.9765 -5.45272 0.0121299 0.000496063">
 <path class="fil4" d="M16.9765 -5.45242c0.00672047,-0.000291339 0.0111102,7.08661e-005 0.0119567,0.000169291 -0.00323622,-0.000582677 -0.00733465,-0.000610236 -0.0119567,-0.000169291z"/>
 <path class="fil4" d="M16.9885 -5.45225c2.75591e-005,1.1811e-005 0.000110236,1.1811e-005 0.000165354,2.75591e-005 0,0 -4.33071e-005,-1.5748e-005 -0.000165354,-2.75591e-005z"/>
</symbol>
 <g id="Layer_x0020_1">
  <metadata id="CorelCorpID_0Corel-Layer"/>
  <path class="fil5" d="M0.0505866 0.272228l-0.0505866 0 0 -0.108402 0.0505866 0 0 -0.0096378c0,-0.13572 0.122866,-0.154189 0.189524,-0.154189 0.0248937,0 0.0417638,0.00241732 0.0417638,0.00241732l0 0.117248c0,0 -0.00963386,-0.00161811 -0.0224882,-0.00161811 -0.0273071,0 -0.0698701,0.0048189 -0.0698701,0.0401614l0 0.00561811 0.0762953 0 0 0.108402 -0.0762953 0 0 0.314634 -0.138929 0 0 -0.314634zm2.58054 0.314665l0 -0.27198c0,-0.0404528 -0.00788189,-0.0699409 -0.0236496,-0.0885039 -0.0157717,-0.018563 -0.0399409,-0.0278504 -0.0724803,-0.0278504 -0.0424764,0 -0.073878,0.0116969 -0.0942165,0.0350984 -0.0203543,0.0233898 -0.0305197,0.0601417 -0.0305197,0.110248l0 0.242988 -0.0385394 0 0 -0.283433c0,-0.0699331 -0.0320394,-0.104902 -0.096122,-0.104902 -0.0434882,0 -0.0751457,0.0126575 -0.0949921,0.0379528 -0.0198346,0.0253031 -0.029748,0.0657992 -0.029748,0.121504l0 0.228878 -0.0377677 0 0 -0.42152 0.0312874 0 0.00799606 0.0637008 0.00229921 0c0.011437,-0.0205984 0.0277126,-0.0365551 0.0488268,-0.0478819 0.0211024,-0.0113071 0.0443701,-0.0169685 0.0697992,-0.0169685 0.0653661,0 0.107327,0.0245472 0.125894,0.0736181l0.00152756 0c0.0134764,-0.0236417 0.0315984,-0.0418189 0.0543504,-0.0545433 0.0227598,-0.0127126 0.0486457,-0.0190748 0.0776339,-0.0190748 0.0452677,0 0.0792126,0.0120827 0.101846,0.0362441 0.0226378,0.0241654 0.0339685,0.0625591 0.0339685,0.115197l0 0.271228 -0.0373937 0zm0.246047 -0.0341457c0.0442441,0 0.0791575,-0.0126417 0.104705,-0.0379646 0.0255669,-0.0252913 0.0383425,-0.0604488 0.0383425,-0.105472l0 -0.040811 -0.0724685 0.00305512c-0.058248,0.00279921 -0.099752,0.0118898 -0.124567,0.0272717 -0.0247874,0.0153937 -0.0371732,0.0393622 -0.0371732,0.0719055 0,0.0259449 0.00793307,0.0460984 0.0238346,0.0604646 0.0158937,0.014374 0.0383307,0.0215512 0.0673268,0.0215512zm0.153169 0.0339488l-0.010122 -0.0728622 -0.00304331 0c-0.0208622,0.0267047 -0.0422835,0.0455984 -0.0642913,0.0566496 -0.0219882,0.0110669 -0.048,0.0165984 -0.078,0.0165984 -0.0406929,0 -0.0723583,-0.0104213 -0.0949803,-0.0312795 -0.0226535,-0.0208543 -0.0339606,-0.0497244 -0.0339606,-0.0865906 0,-0.0404449 0.0168504,-0.0718425 0.0505472,-0.0942283 0.0337008,-0.022374 0.0824567,-0.0341969 0.146291,-0.0354724l0.0789646 -0.00230315 0 -0.021c0,-0.0394134 -0.00800394,-0.0691654 -0.0240315,-0.0892559 -0.0160157,-0.0200866 -0.0418268,-0.0301339 -0.0774291,-0.0301339 -0.0384134,0 -0.0782126,0.0106732 -0.119417,0.0320354l-0.0141024 -0.0328071c0.0455197,-0.0213543 0.0905276,-0.0320472 0.135047,-0.0320472 0.0455039,0 0.0795276,0.0118268 0.102035,0.0354882 0.0225079,0.0236417 0.0337598,0.0605276 0.0337598,0.110618l0.000586614 0.276591 -0.0278543 0zm0.295264 0.000188976c-0.059248,0 -0.105654,-0.018685 -0.139224,-0.0560787 -0.0335669,-0.037374 -0.0503504,-0.0895039 -0.0503504,-0.156394 0,-0.0686654 0.0174055,-0.1145 0.052252,-0.152783 0.0348307,-0.0382638 0.0825276,-0.0574055 0.143055,-0.0574055 0.0358504,0 0.070189,0.00624016 0.102992,0.018685l-0.0103031 0.0335748c-0.0358543,-0.0119528 -0.0670157,-0.0179213 -0.0934606,-0.0179213 -0.0508701,0 -0.0893937,0.0157008 -0.115594,0.0471063 -0.0261929,0.0314094 -0.0392717,0.0689764 -0.0392717,0.127969 0,0.0559567 0.0130787,0.0997598 0.0392717,0.131425 0.0262008,0.0316575 0.0628189,0.0474882 0.10987,0.0474882 0.0376457,0 0.0726142,-0.00673228 0.104906,-0.0202244l0 0.0350906c-0.0264606,0.0129921 -0.0611614,0.0194685 -0.104142,0.0194685zm0.470756 7.87402e-006l0 -0.268933c0,-0.0417126 -0.00877165,-0.0720354 -0.026315,-0.0909882 -0.0175551,-0.018937 -0.0447677,-0.0284134 -0.0816417,-0.0284134 -0.0495787,0 -0.0858976,0.0125315 -0.108913,0.0375709 -0.0230079,0.0250512 -0.0345157,0.065685 -0.0345157,0.121886l0 0.228878 -0.0377756 0 0 -0.586224 0.0377756 0 0 0.181488 -0.00190157 0.0530157 0.00267717 0c0.0154803,-0.0249173 0.0350906,-0.0429685 0.0587283,-0.0541575 0.0236654,-0.0111929 0.0530315,-0.0167913 0.0881299,-0.0167913 0.0940866,0 0.141138,0.0504843 0.141138,0.151441l0 0.271228 -0.0373858 0zm0.520114 0l0 -0.268933c0,-0.0417126 -0.00878346,-0.0720354 -0.0263189,-0.0909882 -0.0175591,-0.018937 -0.0447677,-0.0284134 -0.0816339,-0.0284134 -0.0495945,0 -0.0859094,0.0125315 -0.108925,0.0375709 -0.0230079,0.0250512 -0.0345118,0.065685 -0.0345118,0.121886l0 0.228878 -0.0377795 0 0.000259843 -0.423071 0.0320551 0 0.00698031 0.065252 0.00230315 0c0.0269449,-0.0432283 0.074874,-0.0648504 0.143811,-0.0648504 0.0940827,0 0.141138,0.0504843 0.141138,0.151441l0 0.271228 -0.037378 0zm0.295063 -0.389094c-0.0399409,0 -0.0719882,0.0131496 -0.0961339,0.0394724 -0.0241614,0.0263189 -0.0382953,0.0642756 -0.0423504,0.113874l0.256362 0c0,-0.048063 -0.0104449,-0.0856299 -0.0312795,-0.112728 -0.0208661,-0.0270748 -0.0497244,-0.0406181 -0.0865984,-0.0406181zm0.0110551 0.388898c-0.0602677,0 -0.10726,-0.0185748 -0.140961,-0.0557008 -0.033689,-0.037126 -0.0505354,-0.0812992 -0.0505354,-0.148193 0,-0.0661142 0.0162795,-0.119075 0.0488346,-0.158882 0.0325472,-0.0397913 0.0764016,-0.0596969 0.131606,-0.0596969 0.0488307,0 0.0873504,0.0170433 0.115587,0.0511181 0.0282165,0.0340866 0.0423307,0.080374 0.0423307,0.138854l0 0.0305157 -0.298681 0c0.000503937,0.0569724 0.0137953,0.092622 0.0398583,0.122634 0.026063,0.0300118 0.0633858,0.0450118 0.111961,0.0450118 0.0236575,0 0.0444449,-0.00165354 0.0623622,-0.00495669 0.0179331,-0.00329921 0.0406457,-0.0104331 0.0681142,-0.0213701l0 0.0343465c-0.0234134,0.0101654 -0.0450276,0.0170945 -0.0648701,0.0207835 -0.0198268,0.0036811 -0.0417087,0.00553543 -0.0656063,0.00553543zm0.518181 -0.115402c0,0.0371457 -0.0141024,0.065685 -0.0423465,0.0856496 -0.0282165,0.0199606 -0.0682835,0.0299488 -0.120161,0.0299488 -0.0554409,0 -0.0994409,-0.00852756 -0.131976,-0.0255748l0 -0.040811c0.0416929,0.0208583 0.0856969,0.0312874 0.131976,0.0312874 0.040937,0 0.0720315,-0.00680315 0.0932756,-0.0204173 0.0212323,-0.0135984 0.0318504,-0.0317165 0.0318504,-0.0543583 0,-0.101047 -0.182858,-0.0806811 -0.234043,-0.162303 -0.00850787,-0.0136063 -0.0127638,-0.0301969 -0.0127638,-0.0497874 0,-0.0310197 0.0130157,-0.0555551 0.0391024,-0.0736102 0.026063,-0.0180591 0.0624843,-0.0270945 0.109283,-0.0270945 0.0447559,0 0.0872244,0.0083937 0.127402,0.0251811l-0.0141024 0.0343268c-0.0407047,-0.0167795 -0.0784724,-0.0251732 -0.113299,-0.0251732 -0.0338386,0 -0.0606575,0.00559843 -0.0804921,0.0167835 -0.0198307,0.0111969 -0.029748,0.0267047 -0.029748,0.0465394 0,0.0980039 0.181465,0.0775827 0.233268,0.160972 0.0085,0.0137362 0.0127756,0.0298937 0.0127756,0.0484409zm-1.1915 0.115598l-0.0377756 0 0 -0.423083 0.0377756 0 0 0.423083zm-0.0188858 -0.557319c0.0151378,0 0.0274134,0.0122717 0.0274134,0.0274134 0,0.0151378 -0.0122756,0.0274134 -0.0274134,0.0274134 -0.0151417,0 -0.0274134,-0.0122756 -0.0274134,-0.0274134 0,-0.0151417 0.0122717,-0.0274134 0.0274134,-0.0274134zm-2.07374 -0.0288465l0.0460748 0 0 0.749713 -0.0460748 0 0 -0.749713zm-0.348681 0.316748c0,-0.0250866 -0.0195906,-0.0517362 -0.047811,-0.0517362 -0.0391811,0 -0.0587756,0.0219488 -0.0674016,0.0517362l0.115213 0zm-0.047811 -0.153618c0.119138,0 0.186539,0.0830709 0.186539,0.195157 0,0.013311 -0.00313386,0.040748 -0.00313386,0.040748l-0.254724 0c0.010189,0.0509409 0.0509409,0.0736811 0.0940472,0.0736811 0.0580079,0 0.107382,-0.0423268 0.107382,-0.0423268l0.0540827 0.0909134c0,0 -0.0650551,0.0642677 -0.172433,0.0642677 -0.144205,0 -0.221807,-0.104232 -0.221807,-0.21161 0,-0.11835 0.0799449,-0.210831 0.210047,-0.210831zm-0.541976 0.262193c0,0 0.0578228,0.0581063 0.121268,0.0581063 0.0200709,0 0.031315,-0.00550394 0.031315,-0.0196339 0,-0.0337559 -0.207189,-0.044748 -0.207189,-0.175858 0,-0.0871417 0.0827126,-0.124831 0.170244,-0.124831 0.0674606,0 0.160618,0.0188386 0.160618,0.0918543l0 0.040063 -0.120457 0 0 -0.0117992c0,-0.0109882 -0.0176693,-0.0188465 -0.0377402,-0.0188465 -0.0192835,0 -0.0369449,0.00628346 -0.0369449,0.0188465 0,0.0416102 0.209594,0.0361181 0.209594,0.171937 0,0.0816457 -0.0730787,0.13111 -0.169441,0.13111 -0.118858,0 -0.183098,-0.0737953 -0.183098,-0.0737953l0.0618307 -0.0871535zm-0.561929 -0.136291c0,-0.011248 -0.0064252,-0.0176654 -0.0176693,-0.0176654l-0.0305157 0 0 -0.108268 0.128488 0c0.0409528,0 0.058622,0.0176614 0.058622,0.058622l0 0.183169c0,0.0881457 0.131697,0.0804016 0.131697,-9.44882e-005l0 -0.241697 0.138933 0 0 0.278736c0,0.0112244 0.00642126,0.0176535 0.0176654,0.0176535l0.0305236 0 3.93701e-006 0.126575 -0.122878 3.14961e-005c-0.0377402,0 -0.0578386,-0.0286299 -0.0578386,-0.0567283l1.5748e-005 -0.0152638 -0.00159843 0c-0.0224882,0.0441732 -0.0730787,0.0714685 -0.128492,0.0714685 -0.0819055,0 -0.146957,-0.0385472 -0.146957,-0.154992l0 -0.141547z"/>
 </g>
</svg>
